/* XPM */
static char * dooper_right_xpm[] = {
"42 72 26 1",
" 	c None",
".	c #080808",
"+	c #1B1B1B",
"@	c #313131",
"#	c #8C5239",
"$	c #D99878",
"%	c #3E1D0B",
"&	c #D7D7D7",
"*	c #FACDA5",
"=	c #F2F2F2",
"-	c #2E3192",
";	c #FFE8D4",
">	c #C00002",
",	c #680004",
"'	c #031D3C",
")	c #FE0005",
"!	c #900005",
"~	c #184399",
"{	c #2E5EB6",
"]	c #043B73",
"^	c #DB8100",
"/	c #FFF200",
"(	c #052C53",
"_	c #3E0002",
":	c #7F7F7F",
"<	c #6A4100",
"                                          ",
"                      ...                 ",
"                    ......+.              ",
"                   .....++.+.+            ",
"                  ...@@@....+..           ",
"                  .++..+@@+@.+..          ",
"                 .+..@+.+.@+..+.          ",
"                 ..+...#$$#.#+..          ",
"                 .....#$$$..$.+.          ",
"                 ..%+.$..#$$$..           ",
"                 .%$%+$.&.**..            ",
"                  %$##$&=-**$%            ",
"                  .%#$$****;#%            ",
"                   .%#$****#%             ",
"               >,>,>%%#$*##$%,            ",
"              >')>)!,#%%$$$%,)'           ",
"             ''~~))>>%##%%%)>{~''         ",
"           ''{{{~]~{{!%%%%!{~~'{{'        ",
"          '~{{{{{~~~!>>>>>>>!~~'{{'       ",
"          '{{]{{{~~>^>))))^))>~{{]'       ",
"          '{]{{{]~>))))>^////^>!{{]'      ",
"         '~(]{{~]'~{>)))))))>^!~~{]'      ",
"         '{~]](((']~{!)^/^>))>{](~''      ",
"         '{{]~'''](]~~{>))))>{]'(({{'     ",
"        '~{]~~]'!'](]~~](>)((]]'~]~{'     ",
"        '(~]~]'!!']]((((]]>]]((']~]~~'    ",
"        '~((~]'!!'(]]]~~~~~~~]'_']'(('    ",
"       '{{{~('>!!!'((]](~~(~(]'_:'~]]~'   ",
"       '{{{~'>>>!!']]((~~(((~('_:'~~]{'   ",
"       ']{~~'>>>!!']]](~{{]{~'!_::'~{{'   ",
"      ']~{~'>>>>!!!']~(~{{]{~'!_::'~{{~'  ",
"      ']~~~'>>>>!!!']~(~~~(~~('_:::'~{{'  ",
"      '~~~]'>>>>!!!<//!/^^/!//<_::%#'''%  ",
"       '~~'%>>>>!!<^^/!/^^/!/^<_:%#$**$%  ",
"       '~'$*%>>>!!_!>)))))))))__%#$%$**%  ",
"        '#*#$%>>!_!!>))))))))>__%%%%$$$%  ",
"        %#$$%*%>!_!!!!>)))))>!__%##$#$%   ",
"        %##%%$%>!__!!>>>>>>!!_~' %##$%    ",
"        %#$##%>>'~(__!!!>>!!_~{'  %%%     ",
"         %#$%>>>'({{{_!!!!!_({{~'         ",
"         _%%>>>!'({{{(_!!!_(~{{{'         ",
"         _!>>>>'~({{{(~___](~]{{'         ",
"        _>!>>>>'~{{{(~]'!']]~]{{'         ",
"        _!>>>>>'~{{]~]'!!']]~{]('         ",
"       _>!>>>>!'~~{]~'!!!'(~~{{{'         ",
"       _!>>>>>'~~~~]]'!!!']~~{{~'         ",
"       _!>>>>>'~~~]~]'!!!!']~~~'_         ",
"      _>!>>>>>'~]]]]'!!!!!']]]]'_         ",
"      _!>>>>>!'({{~]'!!!!!'({{{'_         ",
"      _!>>>>>!'(~~~'!!!!!'']{~~'_         ",
"      _!>>>>>_']((('!!!__'](~~'!_         ",
"     _>!>>>>_>_]]]'!!!_!>_]{(('!_         ",
"     _!>>>>>_>_]]]__!_!,,>_{{{'!_         ",
"     _!>>>>_,!>___>_!_!!>!>__{'!_         ",
"     _!>>>>_!,,>>>,__!!>>>!>>_>!_         ",
"    _!>>>>>_!>>!!!>__!>>)),>_>>!_         ",
"    _!>>>!>_!>>>))__!!>))>__>>>!_         ",
"    _!>>!!>_!>>)))__!>)))_!>>>>!_         ",
"   _>!>>!>>_!>>))!__>)))_>>>>>>!_         ",
"   _!>>!!>>_!!>))__!>)>_!>>>>>>!_         ",
"   _!>>!!>>!_!>)>_!>>)_!>>>>>>>!_         ",
"  _!!!!!!>!!_!>)_!!>))_>>>>>!>!!_         ",
"  _!!_!!!>!!_!!>_!>>)>_>!>>>!!!!_         ",
"   ____!!!!!_!!!_!>>)_!!_!!!_!!__         ",
"      ___!!__>!_!_>>)_!__!!!___           ",
"         ___!>>___!>>_______              ",
"           _!>)_ _!!>_                    ",
"           _!>)_  _!!_                    ",
"           _!>>_   __                     ",
"           _!!>_                          ",
"            ___                           ",
"                                          "};
