/* XPM */
static char * dooper_laser_left_xpm[] = {
"42 72 32 1",
" 	c None",
".	c #080808",
"+	c #1B1B1B",
"@	c #313131",
"#	c #8C5239",
"$	c #D99878",
"%	c #060606",
"&	c #3E1D0B",
"*	c #FACDA5",
"=	c #F30303",
"-	c #FE1616",
";	c #190101",
">	c #FE0109",
",	c #FE0404",
"'	c #FE0202",
")	c #FFE8D4",
"!	c #FAC7A0",
"~	c #FABC98",
"{	c #680004",
"]	c #C00002",
"^	c #031D3C",
"/	c #FE0005",
"(	c #900005",
"_	c #184399",
":	c #2E5EB6",
"<	c #043B73",
"[	c #DB8100",
"}	c #FFF200",
"|	c #052C53",
"1	c #3E0002",
"2	c #7F7F7F",
"3	c #6A4100",
"                                          ",
"                 ...                      ",
"              .+......                    ",
"            +.+.++.....                   ",
"           ..+....@@@...                  ",
"          ..+.@+@@+..++.                  ",
"          .+..+@.+.+@..+.                 ",
"          ..+#.#$$#...+..                 ",
"          .+.$..$$$#.....                 ",
"           ..$$$#.%$.+&..                 ",
"            ..**=-;$+&$&.                 ",
"            &$**>,'$##$&                  ",
"            &#)*!~*$$#&.                  ",
"             &#****$#&.                   ",
"            {&$##*$#&&]{]{]               ",
"           ^/{&$$$&&#{(/]/^]              ",
"         ^^_:]/&&&##&]]//__^^             ",
"        ^::^__:(&&&&(::_<_:::^^           ",
"       ^::^__(]]]]]]](___:::::_^          ",
"       ^<::_]//[////][]__:::<::^          ",
"      ^<::(][}}}}[]////]_<:::<:^          ",
"      ^<:__([]///////]:_^<_::<|_^         ",
"      ^^_|<:]//][}[/(:_<^|||<<_:^         ",
"     ^::||^<:]////]:__<|<^^^_<::^         ",
"     ^:_<_^<<||/]|<__<|<^(^<__<:_^        ",
"    ^__<_<^||<<]<<||||<<^((^<_<_|^        ",
"    ^||^<^1^<_______<<<|^((^<_||_^        ",
"   ^_<<_^21^<|_|__|<<||^(((]^|_:::^       ",
"   ^:<__^21^|_|||__||<<^((]]]^_:::^       ",
"   ^::_^221(^_:<::_|<<<^((]]]^__:<^       ",
"  ^_::_^221(^_:<::_|_<^(((]]]]^_:_<^      ",
"  ^::_^2221^|__|___|_<^(((]]]]^___<^      ",
"  &^^^#&2213}}(}[[}(}}3(((]]]]^<___^      ",
"  &$**$#&213[}(}[[}(}[[3((]]]]&^__^       ",
"  &**$&$#&11/////////](1((]]]&*$^_^       ",
"  &$$$&&&&11]////////]((1(]]&$#*#^        ",
"   &$#$##&11(]/////]((((1(]&*&$$#&        ",
"    &$##& ^_1((]]]]]]((11(]&$&&##&        ",
"     &&&  ^:_1((]](((11|_^]]&##$#&        ",
"         ^_::|1(((((1:::|^]]]&$#&         ",
"         ^:::_|1(((1|:::|^(]]]&&1         ",
"         ^::<_|<111_|:::|_^]]]](1         ",
"         ^::<_<<^(^<_|:::_^]]]](]1        ",
"         ^|<:_<<^((^<_<::_^]]]]](1        ",
"         ^:::__|^(((^_<:__^(]]]](]1       ",
"         ^_::__<^(((^<<____^]]]]](1       ",
"         1^___<^((((^<_<___^]]]]](1       ",
"         1^<<<<^(((((^<<<<_^]]]]](]1      ",
"         1^:::|^(((((^<_::|^(]]]]](1      ",
"         1^__:<^^(((((^___|^(]]]]](1      ",
"         1(^__|<^11(((^|||<^1]]]]](1      ",
"         1(^||:<1](1(((^<<<1]1]]]](]1     ",
"         1(^:::1]{{(1(11<<<1]1]]]]](1     ",
"         1(^:11](]((1(1]111]({1]]]](1     ",
"         1(]1]](]]]((11{]]]{{(1]]]](1     ",
"         1(]]1]{//]](11](((]](1]]]]](1    ",
"         1(]]]11]//]((11//]]](1](]]](1    ",
"         1(]]]](1///](11///]](1]((]](1    ",
"         1(]]]]]]1///]11(//]](1]](]](]1   ",
"         1(]]]]]](1]/](11//]((1]]((]](1   ",
"         1(]]]]]]](1/]](1]/](1(]]((]](1   ",
"         1((](]]]]]1//]((1/](1((]((((((1  ",
"         1((((]]](]1]/]](1]((1((](((1((1  ",
"         11((1(((1((1/]](1(((1(((((1111   ",
"           111(((11(1/]]1(1(]11((111      ",
"              1111111]](111]](111         ",
"                    1]((1 1/](1           ",
"                    1((1  1/](1           ",
"                     11   1]](1           ",
"                          1]((1           ",
"                           111            ",
"                                          "};
