/* XPM */
static xpm_row_t dooper_laser_right_xpm[] = {
"42 72 30 1",
" 	c None",
".	c #080808",
"+	c #1B1B1B",
"@	c #313131",
"#	c #8C5239",
"$	c #D99878",
"%	c #3E1D0B",
"&	c #FE1515",
"*	c #FD0101",
"=	c #FAC9A1",
"-	c #FACDA5",
";	c #FE1919",
">	c #FE1A1A",
",	c #FB0419",
"'	c #FAB390",
")	c #FFE8D4",
"!	c #C00002",
"~	c #680004",
"{	c #031D3C",
"]	c #FE0005",
"^	c #900005",
"/	c #184399",
"(	c #2E5EB6",
"_	c #043B73",
":	c #DB8100",
"<	c #FFF200",
"[	c #052C53",
"}	c #3E0002",
"|	c #7F7F7F",
"1	c #6A4100",
"                                          ",
"                      ...                 ",
"                    ......+.              ",
"                   .....++.+.+            ",
"                  ...@@@....+..           ",
"                  .++..+@@+@.+..          ",
"                 .+..@+.+.@+..+.          ",
"                 ..+...#$$#.#+..          ",
"                 .....#$$$..$.+.          ",
"                 ..%+.$..#$$$..           ",
"                 .%$%+$.&*=-..            ",
"                  %$##$;>,'-$%            ",
"                  .%#$$----)#%            ",
"                   .%#$----#%             ",
"               !~!~!%%#$-##$%~            ",
"              !{]!]^~#%%$$$%~]{           ",
"             {{//]]!!%##%%%]!(/{{         ",
"           {{(((/_/((^%%%%^(//{(({        ",
"          {/(((((///^!!!!!!!^//{(({       ",
"          {((_(((//!:!]]]]:]]!/((_{       ",
"          {(_(((_/!]]]]!:<<<<:!^((_{      ",
"         {/[_((/_{/(!]]]]]]]!:^//(_{      ",
"         {(/__[[[{_/(^]:<:!]]!(_[/{{      ",
"         {((_/{{{_[_//(!]]]]!(_{[[(({     ",
"        {/(_//_{^{_[_//_[!][[__{/_/({     ",
"        {[/_/_{^^{__[[[[__!__[[{_/_//{    ",
"        {/[[/_{^^{[___///////_{}{_{[[{    ",
"       {(((/[{!^^^{[[__[//[/[_{}|{/__/{   ",
"       {(((/{!!!^^{__[[//[[[/[{}|{//_({   ",
"       {_(//{!!!^^{___[/((_(/{^}||{/(({   ",
"      {_/(/{!!!!^^^{_/[/((_(/{^}||{/((/{  ",
"      {_///{!!!!^^^{_/[///[//[{}|||{/(({  ",
"      {///_{!!!!^^^1<<^<::<^<<1}||%#{{{%  ",
"       {//{%!!!!^^1::<^<::<^<:1}|%#$--$%  ",
"       {/{$-%!!!^^}^!]]]]]]]]]}}%#$%$--%  ",
"        {#-#$%!!^}^^!]]]]]]]]!}}%%%%$$$%  ",
"        %#$$%-%!^}^^^^!]]]]]!^}}%##$#$%   ",
"        %##%%$%!^}}^^!!!!!!^^}/{ %##$%    ",
"        %#$##%!!{/[}}^^^!!^^}/({  %%%     ",
"         %#$%!!!{[(((}^^^^^}[((/{         ",
"         }%%!!!^{[((([}^^^}[/((({         ",
"         }^!!!!{/[((([/}}}_[/_(({         ",
"        }!^!!!!{/((([/_{^{__/_(({         ",
"        }^!!!!!{/((_/_{^^{__/(_[{         ",
"       }!^!!!!^{//(_/{^^^{[//((({         ",
"       }^!!!!!{////__{^^^{_//((/{         ",
"       }^!!!!!{///_/_{^^^^{_///{}         ",
"      }!^!!!!!{/____{^^^^^{____{}         ",
"      }^!!!!!^{[((/_{^^^^^{[((({}         ",
"      }^!!!!!^{[///{^^^^^{{_(//{}         ",
"      }^!!!!!}{_[[[{^^^}}{_[//{^}         ",
"     }!^!!!!}!}___{^^^}^!}_([[{^}         ",
"     }^!!!!!}!}___}}^}^~~!}((({^}         ",
"     }^!!!!}~^!}}}!}^}^^!^!}}({^}         ",
"     }^!!!!}^~~!!!~}}^^!!!^!!}!^}         ",
"    }^!!!!!}^!!^^^!}}^!!]]~!}!!^}         ",
"    }^!!!^!}^!!!]]}}^^!]]!}}!!!^}         ",
"    }^!!^^!}^!!]]]}}^!]]]}^!!!!^}         ",
"   }!^!!^!!}^!!]]^}}!]]]}!!!!!!^}         ",
"   }^!!^^!!}^^!]]}}^!]!}^!!!!!!^}         ",
"   }^!!^^!!^}^!]!}^!!]}^!!!!!!!^}         ",
"  }^^^^^^!^^}^!]}^^!]]}!!!!!^!^^}         ",
"  }^^}^^^!^^}^^!}^!!]!}!^!!!^^^^}         ",
"   }}}}^^^^^}^^^}^!!]}^^}^^^}^^}}         ",
"      }}}^^}}!^}^}!!]}^}}^^^}}}           ",
"         }}}^!!}}}^!!}}}}}}}              ",
"           }^!]} }^^!}                    ",
"           }^!]}  }^^}                    ",
"           }^!!}   }}                     ",
"           }^^!}                          ",
"            }}}                           ",
"                                          "};
