/* XPM */
static char * goomba_right_xpm[] = {
"42 37 111 2",
"  	c None",
". 	c #BA7038",
"+ 	c #BE7C51",
"@ 	c #BD794A",
"# 	c #BA6F38",
"$ 	c #BA6F37",
"% 	c #BE7C50",
"& 	c #B06935",
"* 	c #B06A35",
"= 	c #B86E37",
"- 	c #B66D36",
"; 	c #B4754C",
"> 	c #BA6F36",
", 	c #AA6632",
"' 	c #040201",
") 	c #000000",
"! 	c #A46230",
"~ 	c #8B5327",
"{ 	c #281507",
"] 	c #BA7036",
"^ 	c #A96633",
"/ 	c #BB7038",
"( 	c #BA7039",
"_ 	c #BF7F59",
": 	c #BD794E",
"< 	c #B96F38",
"[ 	c #B66E36",
"} 	c #B66F37",
"| 	c #F4C76E",
"1 	c #F7CC71",
"2 	c #8B733D",
"3 	c #341C09",
"4 	c #8F5529",
"5 	c #744420",
"6 	c #B79450",
"7 	c #F7CC70",
"8 	c #E8B965",
"9 	c #B66E37",
"0 	c #BA7139",
"a 	c #FBCB70",
"b 	c #FFD073",
"c 	c #89733D",
"d 	c #8C5327",
"e 	c #6C3F1D",
"f 	c #B99652",
"g 	c #EFBD67",
"h 	c #44260F",
"i 	c #5E3719",
"j 	c #321B09",
"k 	c #907941",
"l 	c #C4A259",
"m 	c #B6904E",
"n 	c #8F552A",
"o 	c #90562A",
"p 	c #BF9B55",
"q 	c #6E5C30",
"r 	c #BC9C55",
"s 	c #ECB965",
"t 	c #F8C86E",
"u 	c #917A41",
"v 	c #C2A158",
"w 	c #A78A4B",
"x 	c #D9B363",
"y 	c #C6A45A",
"z 	c #D8B061",
"A 	c #BA7138",
"B 	c #EDBB66",
"C 	c #F0BF69",
"D 	c #E1AB5D",
"E 	c #EAB865",
"F 	c #E4AF5F",
"G 	c #BE763C",
"H 	c #BF783D",
"I 	c #BC743B",
"J 	c #EFBD68",
"K 	c #E0AB5D",
"L 	c #BB7138",
"M 	c #F8CB79",
"N 	c #FDCE72",
"O 	c #FBCC71",
"P 	c #FFD37F",
"Q 	c #EAC37B",
"R 	c #E1B764",
"S 	c #0F0F0F",
"T 	c #B19458",
"U 	c #B19250",
"V 	c #EFC36B",
"W 	c #CBA85C",
"X 	c #9C8045",
"Y 	c #070707",
"Z 	c #B59551",
"` 	c #CDA95D",
" .	c #E8BF69",
"..	c #FED073",
"+.	c #D3AD5F",
"@.	c #746133",
"#.	c #FDD073",
"$.	c #524222",
"%.	c #151515",
"&.	c #AA8F4D",
"*.	c #E6BE69",
"=.	c #EEC46C",
"-.	c #FFD178",
";.	c #524631",
">.	c #030303",
",.	c #393939",
"'.	c #030201",
").	c #050401",
"!.	c #917A42",
"~.	c #FFD68A",
"{.	c #535353",
"                                                                                    ",
"                                                                                    ",
"                                                                                    ",
"                                . . . . . . . .                                     ",
"                                . . . . . . . .                                     ",
"                            . . . . . . . . . . . .                                 ",
"                            . . . . . . . . . . . .                                 ",
"                      + . . . . . . . . . . . . . . . .                             ",
"                      @ . . . . . . . . . . . . . . . .                             ",
"                  # $ . . . . . . . . . . . . . . . . . . $ %                       ",
"                  & * * * = . . . . . . . . . . . . - * * * ;                       ",
"              > , ' ) ) ) ! . . . . . . . . . . . . ~ ) ) ) { ] .                   ",
"              . ^ ' ) ) ) ! / . . . . . . . . . . / ~ ) ) ) { . (                   ",
"          _ : . < [ } | 1 2 3 4 . . . . . . . . 5 3 6 7 8 - 9 . .                   ",
"          . . . . . 0 a b c ) d . . . . . . . . e ) f b g . . . . . .               ",
"          . . . . . 0 a b c ) h i i i i i i i i j ) f b g . . . . . .               ",
"          . . . . . 0 a b c ) ) ) ) ) ) ) ) ) ) ) ) f b g . . . . . .               ",
"          . . . . . 0 a b c ) k l m n n n o p l q ) f b g . . . . . .               ",
"      . . . . . . . 0 a b c ) r b s . . . . t b u ) f b g . . . . . . . .           ",
"      . . . . . . . 0 a b v w x b s . . . . t b y w z b g . . . . . . . .           ",
"      . . . . . . . 0 a b b b b b s . . . . t b b b b b g . . . . . . . .           ",
"      . . . . . . . A B C C C C C D . . . . E C C C C C F . . . . . . . .           ",
"      . . . . . . . . . . . . . . . . . . . . . . . . . . . . . . . . . .           ",
"          . . . . . . . . G H H H H H H H H H H H H I . . . . . . . .               ",
"          . . . . . . . . J b b b b b b b b b b b b K . . . . . . . .               ",
"          > > > > > > L . g b b b b b b b b b b b b K L . > > > > > >               ",
"                      M t N b b b b b b b b b b b b O t                             ",
"                      P b b b b b b b b b b b b b b b b                             ",
"                      P b b b b b b b b b b b b b b b b Q                           ",
"                      P b b b b b b b b b b b b b b b b R ) ) ) S                   ",
"                      T U V b b b b b b b b b b W U U U X ) ) ) Y                   ",
"                  S ) ) ) R b b b b b b b b b b u ) ) ) ) ) ) ) ) ) )               ",
"                  S ) ) ) Z `  .b b b b b ..+.` @.) ) ) ) ) ) ) ) ) )               ",
"                  S ) ) ) ) ) r b b b b b #.$.) ) ) ) ) ) ) ) ) ) ) )               ",
"                      %.) ) ) &.*.=.b -.    ;.) ) ) ) ) ) ) ) ) >.                  ",
"                      ,.) ) ) '.).!.b ~.    {.) ) ) ) ) ) ) ) ) S                   ",
"                      ,.) ) ) ) ) u b ~.    {.) ) ) ) ) ) ) ) ) S                   "};
