/* XPM */
static char * goomba_left_xpm[] = {
"42 37 112 2",
"  	c None",
". 	c #BA7038",
"+ 	c #BE7C51",
"@ 	c #C8967C",
"# 	c #BD794A",
"$ 	c #BE7C50",
"% 	c #BA6F37",
"& 	c #BA6F38",
"* 	c #B4754C",
"= 	c #B06A35",
"- 	c #B66D36",
"; 	c #B86E37",
"> 	c #B06935",
", 	c #BA7036",
"' 	c #281507",
") 	c #000000",
"! 	c #8B5327",
"~ 	c #A46230",
"{ 	c #040201",
"] 	c #AA6632",
"^ 	c #BA6F36",
"/ 	c #BA7039",
"( 	c #BB7038",
"_ 	c #A96633",
": 	c #B66E37",
"< 	c #E8B965",
"[ 	c #F7CC70",
"} 	c #B79450",
"| 	c #341C09",
"1 	c #744420",
"2 	c #8F5529",
"3 	c #8B733D",
"4 	c #F7CC71",
"5 	c #F4C76E",
"6 	c #B66F37",
"7 	c #B66E36",
"8 	c #B96F38",
"9 	c #EFBD67",
"0 	c #FFD073",
"a 	c #B99652",
"b 	c #6C3F1D",
"c 	c #8C5327",
"d 	c #89733D",
"e 	c #FBCB70",
"f 	c #BA7139",
"g 	c #321B09",
"h 	c #5E3719",
"i 	c #44260F",
"j 	c #6E5C30",
"k 	c #C4A259",
"l 	c #BF9B55",
"m 	c #90562A",
"n 	c #8F552A",
"o 	c #B6904E",
"p 	c #907941",
"q 	c #917A41",
"r 	c #F8C86E",
"s 	c #ECB965",
"t 	c #BC9C55",
"u 	c #D8B061",
"v 	c #A78A4B",
"w 	c #C6A45A",
"x 	c #D9B363",
"y 	c #C2A158",
"z 	c #E4AF5F",
"A 	c #F0BF69",
"B 	c #EAB865",
"C 	c #E1AB5D",
"D 	c #EDBB66",
"E 	c #BA7138",
"F 	c #BC743B",
"G 	c #BF783D",
"H 	c #BE763C",
"I 	c #E0AB5D",
"J 	c #EFBD68",
"K 	c #BB7138",
"L 	c #FBCC71",
"M 	c #FDCE72",
"N 	c #F8CB79",
"O 	c #FFD37F",
"P 	c #EAC37B",
"Q 	c #0F0F0F",
"R 	c #E1B764",
"S 	c #070707",
"T 	c #9C8045",
"U 	c #B19250",
"V 	c #CBA85C",
"W 	c #EFC36B",
"X 	c #B19458",
"Y 	c #746133",
"Z 	c #CDA95D",
"` 	c #D3AD5F",
" .	c #FED073",
"..	c #E8BF69",
"+.	c #B59551",
"@.	c #524222",
"#.	c #FDD073",
"$.	c #030303",
"%.	c #524631",
"&.	c #FDD898",
"*.	c #FFD998",
"=.	c #FFD178",
"-.	c #EEC46C",
";.	c #E6BE69",
">.	c #AA8F4D",
",.	c #151515",
"'.	c #535353",
").	c #FFD68A",
"!.	c #917A42",
"~.	c #050401",
"{.	c #030201",
"].	c #393939",
"                                                                                    ",
"                                                                                    ",
"                                                                                    ",
"                                    . . . . . . . .                                 ",
"                                    . . . . . . . .                                 ",
"                                . . . . . . . . . . . .                             ",
"                                . . . . . . . . . . . .                             ",
"                            . . . . . . . . . . . . . . . . +                       ",
"                          @ . . . . . . . . . . . . . . . . #                       ",
"                      $ % . . . . . . . . . . . . . . . . . . % &                   ",
"                      * = = = - . . . . . . . . . . . . ; = = = >                   ",
"                  . , ' ) ) ) ! . . . . . . . . . . . . ~ ) ) ) { ] ^               ",
"                  / . ' ) ) ) ! ( . . . . . . . . . . ( ~ ) ) ) { _ .               ",
"                  . . : - < [ } | 1 . . . . . . . . 2 | 3 4 5 6 7 8 .               ",
"              . . . . . . 9 0 a ) b . . . . . . . . c ) d 0 e f . . . . .           ",
"              . . . . . . 9 0 a ) g h h h h h h h h i ) d 0 e f . . . . .           ",
"              . . . . . . 9 0 a ) ) ) ) ) ) ) ) ) ) ) ) d 0 e f . . . . .           ",
"              . . . . . . 9 0 a ) j k l m n n n o k p ) d 0 e f . . . . .           ",
"          . . . . . . . . 9 0 a ) q 0 r . . . . s 0 t ) d 0 e f . . . . . . .       ",
"          . . . . . . . . 9 0 u v w 0 r . . . . s 0 x v y 0 e f . . . . . . .       ",
"          . . . . . . . . 9 0 0 0 0 0 r . . . . s 0 0 0 0 0 e f . . . . . . .       ",
"          . . . . . . . . z A A A A A B . . . . C A A A A A D E . . . . . . .       ",
"          . . . . . . . . . . . . . . . . . . . . . . . . . . . . . . . . . .       ",
"              . . . . . . . . F G G G G G G G G G G G G H . . . . . . . .           ",
"              . . . . . . . . I 0 0 0 0 0 0 0 0 0 0 0 0 J . . . . . . . .           ",
"              ^ ^ ^ ^ ^ ^ . K I 0 0 0 0 0 0 0 0 0 0 0 0 9 . K ^ ^ ^ ^ ^ ^           ",
"                            r L 0 0 0 0 0 0 0 0 0 0 0 0 M r N                       ",
"                            0 0 0 0 0 0 0 0 0 0 0 0 0 0 0 0 O                       ",
"                          P 0 0 0 0 0 0 0 0 0 0 0 0 0 0 0 0 O                       ",
"                  Q ) ) ) R 0 0 0 0 0 0 0 0 0 0 0 0 0 0 0 0 O                       ",
"                  S ) ) ) T U U U V 0 0 0 0 0 0 0 0 0 0 W U X                       ",
"              ) ) ) ) ) ) ) ) ) ) q 0 0 0 0 0 0 0 0 0 0 R ) ) ) Q                   ",
"              ) ) ) ) ) ) ) ) ) ) Y Z `  .0 0 0 0 0 ..Z +.) ) ) Q                   ",
"              ) ) ) ) ) ) ) ) ) ) ) ) @.#.0 0 0 0 0 t ) ) ) ) ) Q                   ",
"                  $.) ) ) ) ) ) ) ) ) %.&.*.=.0 -.;.>.) ) ) ,.                      ",
"                  Q ) ) ) ) ) ) ) ) ) '.    ).0 !.~.{.) ) ) ].                      ",
"                  Q ) ) ) ) ) ) ) ) ) '.    ).0 q ) ) ) ) ) ].                      "};
