/* XPM */
static xpm_row_t greatball_xpm[] = {
"89 89 71 1",
" 	c None",
".	c #CECECE",
"+	c #5E5E5E",
"@	c #6D6D6D",
"#	c #C0C0C0",
"$	c #000000",
"%	c #B1B1B1",
"&	c #9799A3",
"*	c #114E7E",
"=	c #BABABA",
"-	c #0B314F",
";	c #2196F3",
">	c #0D3D64",
",	c #DBDBDB",
"'	c #100403",
")	c #020A10",
"!	c #808080",
"~	c #2D0000",
"{	c #F44336",
"]	c #FB4538",
"^	c #FC3D23",
"/	c #6482C7",
"(	c #3EA3F0",
"_	c #F9402D",
":	c #1F0807",
"<	c #737373",
"[	c #878787",
"}	c #3C100D",
"|	c #909090",
"1	c #DF3D31",
"2	c #DEA09D",
"3	c #BD342A",
"4	c #C65B71",
"5	c #C97B90",
"6	c #CC99AD",
"7	c #C1DFFA",
"8	c #61B1F2",
"9	c #2991E7",
"0	c #9A6E9C",
"a	c #D15562",
"b	c #FAAFAB",
"c	c #F66157",
"d	c #F77168",
"e	c #F99993",
"f	c #FFFFFF",
"g	c #BC607C",
"h	c #FCFCFC",
"i	c #9E9E9E",
"j	c #B18895",
"k	c #B16385",
"l	c #F5574C",
"m	c #155E98",
"n	c #4C8AD9",
"o	c #E14C4D",
"p	c #071F32",
"q	c #001131",
"r	c #1768A8",
"s	c #E7E7E7",
"t	c #484848",
"u	c #55565F",
"v	c #161616",
"w	c #EDEDED",
"x	c #1C1C1C",
"y	c #F3F3F3",
"z	c #F2F2F2",
"A	c #2B2B2B",
"B	c #F5F5F5",
"C	c #F8F8F8",
"D	c #EEEEEE",
"E	c #343434",
"F	c #565656",
"                             .+@@@@++++++++++@@@@@@@@@@@+++#                             ",
"                             #$$$$$$$$$$$$$$$$$$$$$$$$$$$$$%                             ",
"                             #$$$$$$$$$$$$$$$$$$$$$$$$$$$$$%                             ",
"                             #$$$$$$$$$$$$$$$$$$$$$$$$$$$$$%                             ",
"                             #$$$$$$$$$$$$$$$$$$$$$$$$$$$$$%                             ",
"                             #$$$$$$$$$$$$$$$$$$$$$$$$$$$$$%                             ",
"                             #$$$$$$$$$$$$$$$$$$$$$$$$$$$$$%                             ",
"               %%%%%%%%%%####&*****************************&%%%%%%=#######               ",
"              .$$$$$$$$$$$$$$-;;;;;;;;;;;;;;;;;;;;;;;;;;;;;>$$$$$$$$$$$$$$.              ",
"              .$$$$$$$$$$$$$$-;;;;;;;;;;;;;;;;;;;;;;;;;;;;;>$$$$$$$$$$$$$$,              ",
"              ,$$$$$$$$$$$$$$-;;;;;;;;;;;;;;;;;;;;;;;;;;;;;>$$$$$$$$$$$$$$.              ",
"              ,$$$$$$$$$$$$$$-;;;;;;;;;;;;;;;;;;;;;;;;;;;;;>$$$$$$$$$$$$$$.              ",
"              ,$$$$$$$$$$$$$$-;;;;;;;;;;;;;;;;;;;;;;;;;;;;;>$$$$$$$$$$$$$$.              ",
"              ,$$$$$$$$$$$$$$-;;;;;;;;;;;;;;;;;;;;;;;;;;;;;>$$$$$$$$$$$$$$.              ",
"              ,'''''''))))))$-;;;;;;;;;;;;;;;;;;;;;;;;;;;;;>$))))))'''''''#              ",
"       !$$$$$$~{]]]]]^/;;;;;;;(((((((;;;;;;;;;;;;;;;;;;;;;;;;;;;;;/_]]]]{{:$$$$$$<       ",
"       [$$$$$$}{{{{{{^/;;;;;;;(((((((;;;;;;;;;;;;;;;;;;;;;;;;;;;;;/_{{{{{{~$$$$$$!       ",
"       [$$$$$$}{{{{{{^/;;;;;;;(((((((;;;;;;;;;;;;;;;;;;;;;;;;;;;;;/_{{{{{{}$$$$$$!       ",
"       [$$$$$$}{{{{{{^/;;;;;;;(((((((;;;;;;;;;;;;;;;;;;;;;;;;;;;;;/_{{{{{{}$$$$$$!       ",
"       [$$$$$$}{{{{{{^/;;;;;;;(((((((;;;;;;;;;;;;;;;;;;;;;;;;;;;;;/_{{{{{{}$$$$$$!       ",
"       [$$$$$$}{{{{{{^/;;;;;;;(((((((;;;;;;;;;;;;;;;;;;;;;;;;;;;;;/_{{{{{{}$$$$$$!       ",
"       |$$$$$$~1{{{{{^/;;;;;;;(((((((;;;;;;;;;;;;;;;;;;;;;;;;;;;;;/_{{{{{{:$$$$$$<       ",
"       23333333{{{{{{_4555555677777778((((((9;;;;;;;;;;;;;;0444444a{{{{{{{33333332       ",
"       b_]]]]]{{{{{{{{cdddddcefffffff8(((((((;;;;;;;;;;;;;;g^_____]{{{{{{{{]]]]]_e       ",
"       b_{{{{{{{{{{{{{cddddddeffffffh8(((((((;;;;;;;;;;;;;;g_{{{{{{{{{{{{{{{{{{{_e       ",
"       b_{{{{{{{{{{{{{cddddddeffffffh8(((((((;;;;;;;;;;;;;;g_{{{{{{{{{{{{{{{{{{{_e       ",
"       b_{{{{{{{{{{{{{cddddddeffffffh8(((((((;;;;;;;;;;;;;;g_{{{{{{{{{{{{{{{{{{{_e       ",
"       b_{{{{{{{{{{{{{cddddddeffffffh8(((((((;;;;;;;;;;;;;;g_{{{{{{{{{{{{{{{{{{{_e       ",
"       b^______{{{{{{{cddddddefffffff8(((((((;;;;;;;;;;;;;;g_{{{{{{{{{{{{{______^e       ",
"iii%%%%jkkkkkkg{{{{{{{lcccccce7777777(((((((;;;;;;;;;;;;;;;g_{{{{{{{{{{{{{gkkkkkkjiiiii%%",
"$$$$$$$m;;;;;;n1{{{{{{{{{{{{_4(((((((;;;;;;;;;;;;;;;;;;;;;;g_{{{{{{{{{{{{{n;;;;;;m$$$$$$$",
"$$$$$$$m;;;;;;n1{{{{{{{{{{{{_4(((((((;;;;;;;;;;;;;;;;;;;;;;g_{{{{{{{{{{{{{n;;;;;;m$$$$$$$",
"$$$$$$$m;;;;;;n1{{{{{{{{{{{{_4(((((((;;;;;;;;;;;;;;;;;;;;;;g_{{{{{{{{{{{{{n;;;;;;m$$$$$$$",
"$$$$$$$m;;;;;;n1{{{{{{{{{{{{_4(((((((;;;;;;;;;;;;;;;;;;;;;;g_{{{{{{{{{{{{{n;;;;;;m$$$$$$$",
"$$$$$$$m;;;;;;n1{{{{{{{{{{{{_4(((((((;;;;;;;;;;;;;;;;;;;;;;g_{{{{{{{{{{{{{n;;;;;;m$$$$$$$",
"$$$$$$$m;;;;;;n{]]]]]]]]]]]]_4(((((((;;;;;;;;;;;;;;;;;;;;;;g_]]]]]]]]]]]]_n;;;;;;m$$$$$$$",
"$$$$$$$m;;;;;;noooooooooooooog(((((((999999999999999;;;;;;;koooooooooooooon;;;;;;m$$$$$$$",
"$$$$$$$m;;;;;;;999999999999999;;;;;;9p$$$$$$$$$$$$$);;;;;;;999999999999999;;;;;;;m$$$$$$$",
"$$$$$$$m;;;;;;;;;;;;;;;;;;;;;;;;;;;;9p$$$$$$$$$$$$$);;;;;;;;;;;;;;;;;;;;;;;;;;;;;m$$$$$$$",
"$$$$$$$m;;;;;;;;;;;;;;;;;;;;;;;;;;;;9p$$$$$$$$$$$$$);;;;;;;;;;;;;;;;;;;;;;;;;;;;;m$$$$$$$",
"$$$$$$$m;;;;;;;;;;;;;;;;;;;;;;;;;;;;9p$$$$$$$$$$$$$);;;;;;;;;;;;;;;;;;;;;;;;;;;;;m$$$$$$$",
"$$$$$$$m;;;;;;;;;;;;;;;;;;;;;;;;;;;;9p$$$$$$$$$$$$$);;;;;;;;;;;;;;;;;;;;;;;;;;;;;m$$$$$$$",
"$$$$$$$m;;;;;;;;;;;;;;;;;;;;;;;;;;;;9p$$$$$$$$$$$$$);;;;;;;;;;;;;;;;;;;;;;;;;;;;;m$$$$$$$",
"$$$$$$$m;;;;;;;;;;;;;;;;;;;;;;;;;;;;;q$$$$$$$$$$$$$$;;;;;;;;;;;;;;;;;;;;;;;;;;;;;m$$$$$$$",
"$$$$$$$p------>;;;;;;;;;;;;;;n-------%#############=q------r;;;;;;;;;;;;;;>------p$$$$$$$",
"$$$$$$$$$$$$$$p9;;;;;;;;;;;;;r$$$$$$$sffffffffffffff$$$$$$$r;;;;;;;;;;;;;;p$$$$$$$$$$$$$$",
"$$$$$$$$$$$$$$p9;;;;;;;;;;;;;r$$$$$$$sfffffffffffffh$$$$$$$r;;;;;;;;;;;;;;p$$$$$$$$$$$$$$",
"$$$$$$$$$$$$$$p9;;;;;;;;;;;;;r$$$$$$$sfffffffffffffh$$$$$$$r;;;;;;;;;;;;;;p$$$$$$$$$$$$$$",
"$$$$$$$$$$$$$$p9;;;;;;;;;;;;;r$$$$$$$sfffffffffffffh$$$$$$$r;;;;;;;;;;;;;;p$$$$$$$$$$$$$$",
"$$$$$$$$$$$$$$p9;;;;;;;;;;;;;r$$$$$$$sfffffffffffffh$$$$$$$r;;;;;;;;;;;;;;p$$$$$$$$$$$$$$",
"$$$$$$$$$$$$$$p;;;;;;;;;;;;;;r$$$$$$$sfffffffffffffh$$$$$$$r;;;;;;;;;;;;;;p$$$$$$$$$$$$$$",
"$$$$$$$t@@@@@@@rrrrrrrrrrrrrr*$$$$$$$sfffffffffffffh$$$$$$$*rrrrrrrrrrrrrru@@@@@@t$$$$$$$",
"$$$$$$$iffffffs$$$$$$$$$$$$$$$$$$$$$$sfffffffffffffh$$$$$$$$$$$$$$$$$$$$$$,ffffffi$$$$$$$",
"$$$$$$$iffffff,$$$$$$$$$$$$$$$$$$$$$$sfffffffffffffh$$$$$$$$$$$$$$$$$$$$$$,ffffffi$$$$$$$",
"$$$$$$$iffffff,$$$$$$$$$$$$$$$$$$$$$$sfffffffffffffh$$$$$$$$$$$$$$$$$$$$$$,ffffffi$$$$$$$",
"$$$$$$$iffffff,$$$$$$$$$$$$$$$$$$$$$$sfffffffffffffh$$$$$$$$$$$$$$$$$$$$$$,ffffffi$$$$$$$",
"$$$$$$$iffffff,$$$$$$$$$$$$$$$$$$$$$$sfffffffffffffh$$$$$$$$$$$$$$$$$$$$$$,ffffffi$$$$$$$",
"$$$$$$$iffffff,$$$$$$$$$$$$$$$$$$$$$$sfffffffffffffh$$$$$$$$$$$$$$$$$$$$$$,ffffffi$$$$$$$",
"vvvvvv$|wsssss.vvvvvvvvvvvvvvvvvvvvvv.ssssssssssssss$vvvvvvvvvvvvvvvvvvvvv#wsssswi$vvvvvv",
"       [$xxxxvtsyzzzzzzzzzzzzzzzzzzystvxxxxxxxxxxxxAsssszzzzzzzzzzzzzzzzyztvxxxxv!       ",
"       [$$$$$$tBffffffffffffffffffffCt$$$$$$$$$$$$$vBzDBffffffffffffffffffE$$$$$$!       ",
"       [$$$$$$tBffffffffffffffffffffBt$$$$$$$$$$$$$xzwwBfffffffffffffffffhE$$$$$$!       ",
"       |$$$$$$tBffffffffffffffffffffBt$$$$$$$$$$$$$xfhhhfffffffffffffffffhE$$$$$$<       ",
"       |$$$$$$tBffffffffffffffffffffBt$$$$$$$$$$$$$xfffffffffffffffffffffhE$$$$$$<       ",
"       |$$$$$$tBffffffffffffffffffffBt$$$$$$$$$$$$$xfffffffffffffffffffffhE$$$$$$<       ",
"       |$$$$$$tBffffffffffffffffffffBE$$$$$$$$$$$$$$fffffffffffffffffffffhE$$$$$$<       ",
"       |$$$$$$tBffffffffffffffffffffh###############fffffffffffffffffffffhE$$$$$$<       ",
"       |$$$$$$tBfffffffffffffffffffffffffffffffffffffffffffffffffffffffffhE$$$$$$<       ",
"       |$$$$$$tBfffffffffffffffffffffffffffffffffffffffffffffffffffffffffhE$$$$$$<       ",
"       |$$$$$$tBfffffffffffffffffffffffffffffffffffffffffffffffffffffffffhE$$$$$$<       ",
"       |$$$$$$tBfffffffffffffffffffffffffffffffffffffffffffffffffffffffffhE$$$$$$<       ",
"       |$$$$$$tBfffffffffffffffffffffffffffffffffffffffffffffffffffffffffhE$$$$$$<       ",
"       [$$$$$$ECffffffffffffffffffffffffffffffffffffffffffffffffffffffffffE$$$$$$<       ",
"       %+@@@@@<%=============.fffffffffffffffffffffffffffff.==============@@@<@@@%       ",
"              ,$$$$$$$$$$$$$$tfffffffffffffffffffffffffffff+$$$$$$$$$$$$$$.              ",
"              ,$$$$$$$$$$$$$$Ffffffffffffffffffffffffffffff@$$$$$$$$$$$$$$.              ",
"              ,$$$$$$$$$$$$$$Ffffffffffffffffffffffffffffff@$$$$$$$$$$$$$$.              ",
"              ,$$$$$$$$$$$$$$Ffffffffffffffffffffffffffffff@$$$$$$$$$$$$$$.              ",
"              ,$$$$$$$$$$$$$$Ffffffffffffffffffffffffffffff@$$$$$$$$$$$$$$.              ",
"              ,$$$$$$$$$$$$$$Ffffffffffffffffffffffffffffff@$$$$$$$$$$$$$$.              ",
"              ,$$$$$$$$$$$$$$tfhhhhhhhhhhhhhhhhhhhhhhhhhhhf+$$$$$$$$$$$$$$#              ",
"                             =$$$$$$$$$$$$$$$$$$$$$$$$$$$$$#                             ",
"                             %$$$$$$$$$$$$$$$$$$$$$$$$$$$$$#                             ",
"                             #$$$$$$$$$$$$$$$$$$$$$$$$$$$$$%                             ",
"                             #$$$$$$$$$$$$$$$$$$$$$$$$$$$$$%                             ",
"                             #$$$$$$$$$$$$$$$$$$$$$$$$$$$$$%                             ",
"                             #$$$$$$$$$$$$$$$$$$$$$$$$$$$$$%                             ",
"                             #$$$$$$$$$$$$$$$$$$$$$$$$$$$$$%                             ",
"                              .....###########..........###,                             "};
