/* XPM */
static xpm_row_t masterball_xpm[] = {
"90 89 69 1",
" 	c None",
".	c #878787",
"+	c #5E5E5E",
"@	c #6D6D6D",
"#	c #808080",
"$	c #000000",
"%	c #343434",
"&	c #C0C0C0",
"*	c #BABABA",
"=	c #B1B1B1",
"-	c #694A6F",
";	c #51145C",
">	c #593161",
",	c #737373",
"'	c #7E208E",
")	c #9C27B0",
"!	c #8E24A1",
"~	c #484848",
"{	c #565656",
"]	c #100403",
"^	c #954F71",
"/	c #F07FB6",
"(	c #E03A8A",
"_	c #DB7CD1",
":	c #D98FE6",
"<	c #C775D6",
"[	c #A72AAA",
"}	c #AD2C6A",
"|	c #DBDBDB",
"1	c #1C1C1C",
"2	c #111004",
"3	c #B16385",
"4	c #EA68A6",
"5	c #E9C6EF",
"6	c #F5E4F9",
"7	c #F08ABB",
"8	c #FDE2E1",
"9	c #FFFFFF",
"0	c #9E9E9E",
"a	c #D362B4",
"b	c #F2D9F6",
"c	c #C166D1",
"d	c #A028AE",
"e	c #C83398",
"f	c #DA388E",
"g	c #B6A5AC",
"h	c #CECECE",
"i	c #2D0000",
"j	c #909090",
"k	c #1F0807",
"l	c #360E21",
"m	c #130516",
"n	c #61186E",
"o	c #25092A",
"p	c #330D39",
"q	c #6C1B7A",
"r	c #796D7B",
"s	c #43114C",
"t	c #652F6F",
"u	c #161616",
"v	c #EDEDED",
"w	c #E7E7E7",
"x	c #FCFCFC",
"y	c #2B2B2B",
"z	c #EEEEEE",
"A	c #F8F8F8",
"B	c #F2F2F2",
"C	c #F5F5F5",
"D	c #F3F3F3",
"                              .++++++@@@@@@@@@@@++++++++++@#                              ",
"                              +$$$$$$$$$$$$$$$$$$$$$$$$$$$$%                              ",
"                              +$$$$$$$$$$$$$$$$$$$$$$$$$$$$%                              ",
"                              +$$$$$$$$$$$$$$$$$$$$$$$$$$$$%                              ",
"                              +$$$$$$$$$$$$$$$$$$$$$$$$$$$$%                              ",
"                              +$$$$$$$$$$$$$$$$$$$$$$$$$$$$%                              ",
"                              +$$$$$$$$$$$$$$$$$$$$$$$$$$$$%                              ",
"               &*&&&&&&&&&*===-;;;;;;;;;;;;;;;;;;;;;;;;;;;;>*&&&&&&&*=====*               ",
"               ,$$$$$$$$$$$$$$'))))))))))))))))))))))))))))!$$$$$$$$$$$$$$~               ",
"               ,$$$$$$$$$$$$$$'))))))))))))))))))))))))))))'$$$$$$$$$$$$$$~               ",
"               #$$$$$$$$$$$$$$'))))))))))))))))))))))))))))'$$$$$$$$$$$$$${               ",
"               #$$$$$$$$$$$$$$'))))))))))))))))))))))))))))'$$$$$$$$$$$$$${               ",
"               #$$$$$$$$$$$$$$'))))))))))))))))))))))))))))'$$$$$$$$$$$$$${               ",
"               #$$$$$$$$$$$$$$'))))))))))))))))))))))))))))'$$$$$$$$$$$$$${               ",
"               #$]]]]]]]]]]]]$'))))))))))))))))))))))))))))!]]]]]]]]]]]]]${               ",
"        $$$$$$$^///////(((((((_::::::<)))))))))))))))))))))[((((((((((((((}$$$$$$$|       ",
"        1$$$$$$^///////(((((((_::::::<)))))))))))))))))))))[((((((((((((((}$$$$$$$|       ",
"        1$$$$$$^///////(((((((_::::::<)))))))))))))))))))))[((((((((((((((}$$$$$$$|       ",
"        1$$$$$$^///////(((((((_::::::<)))))))))))))))))))))[((((((((((((((}$$$$$$$|       ",
"        1$$$$$$^///////(((((((_::::::<)))))))))))))))))))))[((((((((((((((}$$$$$$$|       ",
"        1$$$$$$^///////(((((((_::::::<)))))))))))))))))))))[((((((((((((((}$$$$$$$|       ",
"       |2$$$$$$^///////(((((((_::::::<)))))))))))))))))))))[((((((((((((((}$$$$$$$        ",
"        3333333////////444444456666665<<<<<<<))))))))))))))[(((((((((((((((}}}}}}}        ",
"        7/////////////////////89999996:::::::))))))))))))))[((((((((((((((((((((((        ",
"        7/////////////////////69999996:::::::))))))))))))))[((((((((((((((((((((((        ",
"        7/////////////////////69999996:::::::))))))))))))))[((((((((((((((((((((((        ",
"        7/////////////////////69999996:::::::))))))))))))))[((((((((((((((((((((((        ",
"        7/////////////////////69999996:::::::))))))))))))))[((((((((((((((((((((((        ",
"        7/////////////////////89999996:::::::))))))))))))))[((((((((((((((((((((((        ",
" =====00444444444444444aaaaaaa5bbbbbb5cccccc<))))))))))))))deeeeeeef((((((((((((((g======h",
"=$$$$$$$((((((((((((((f)))))))<::::::<)))))))))))))))))))))))))))))e((((((((((((((i$$$$$$j",
"0$$$$$$k((((((((((((((f)))))))<::::::<)))))))))))))))))))))))))))))e((((((((((((((l$$$$$$0",
"0$$$$$$k((((((((((((((f)))))))<::::::<)))))))))))))))))))))))))))))e((((((((((((((l$$$$$$0",
"0$$$$$$k((((((((((((((f)))))))<::::::<)))))))))))))))))))))))))))))e((((((((((((((l$$$$$$0",
"0$$$$$$k((((((((((((((f)))))))<::::::<)))))))))))))))))))))))))))))e((((((((((((((l$$$$$$0",
"0$$$$$$k((((((((((((((f)))))))<::::::<)))))))))))))))))))))))))))))e((((((((((((((l$$$$$$0",
"0$$$$$$mfffffffffffffff)))))))<::::::<!!!!!!!!!!!!!!)))))))))))))))effffffffffffffl$$$$$$0",
"0$$$$$$m!dddddddddddddd))))))))))))))'$$$$$$$$$$$$$$n))))))))))))))dddddddddddddddo$$$$$$0",
"0$$$$$$m!))))))))))))))))))))))))))))'$$$$$$$$$$$$$$n)))))))))))))))))))))))))))))o$$$$$$0",
"0$$$$$$m!))))))))))))))))))))))))))))'$$$$$$$$$$$$$$n)))))))))))))))))))))))))))))o$$$$$$0",
"0$$$$$$m!))))))))))))))))))))))))))))'$$$$$$$$$$$$$$n)))))))))))))))))))))))))))))o$$$$$$0",
"=$$$$$$m!))))))))))))))))))))))))))))'$$$$$$$$$$$$$$n)))))))))))))))))))))))))))))o$$$$$$0",
"=$$$$$$m!))))))))))))))))))))))))))))'$$$$$$$$$$$$$$n)))))))))))))))))))))))))))))o$$$$$$j",
"=$$$$$$m!))))))))))))))))))))))))))))'$$$$$$$$$$$$$$n)))))))))))))))))))))))))))))o$$$$$$j",
"=$$$$$$$pppppppq))))))))))))));ppppppr&&&&&&&&&&&&&&rpppppps))))))))))))))'ppppppp]$$$$$$j",
"=$$$$$$$$$$$$$$n))))))))))))))s$$$$$$#99999999999999j$$$$$$o))))))))))))))'$$$$$$$$$$$$$$j",
"=$$$$$$$$$$$$$$n))))))))))))))s$$$$$$#99999999999999j$$$$$$o))))))))))))))'$$$$$$$$$$$$$$j",
"=$$$$$$$$$$$$$$n))))))))))))))s$$$$$$#99999999999999j$$$$$$o))))))))))))))'$$$$$$$$$$$$$$j",
"=$$$$$$$$$$$$$$n))))))))))))))s$$$$$$#99999999999999j$$$$$$o))))))))))))))'$$$$$$$$$$$$$$j",
"=$$$$$$$$$$$$$$n))))))))))))))s$$$$$$#99999999999999j$$$$$$o))))))))))))))'$$$$$$$$$$$$$$j",
"=$$$$$$$$$$$$$$n))))))))))))))s$$$$$$#99999999999999j$$$$$$o))))))))))))))'$$$$$$$$$$$$$$j",
"=$$$$$$$+@@@@@@>qqqqqqqqqqqqqqo$$$$$$#99999999999999j$$$$$$mqqqqqqqqqqqqqqt@@@@@@@u$$$$$$j",
"0$$$$$$1v999999#$$$$$$$$$$$$$$$$$$$$$#99999999999999j$$$$$$$$$$$$$$$$$$$$${9999999~$$$$$$0",
"0$$$$$$1w999999#$$$$$$$$$$$$$$$$$$$$$#99999999999999j$$$$$$$$$$$$$$$$$$$$${999999x%$$$$$$0",
"0$$$$$$1w999999#$$$$$$$$$$$$$$$$$$$$$#99999999999999j$$$$$$$$$$$$$$$$$$$$${999999x%$$$$$$0",
"0$$$$$$1w999999#$$$$$$$$$$$$$$$$$$$$$#99999999999999j$$$$$$$$$$$$$$$$$$$$${999999x%$$$$$$0",
"0$$$$$$1w999999#$$$$$$$$$$$$$$$$$$$$$#99999999999999j$$$$$$$$$$$$$$$$$$$$${999999x%$$$$$$0",
"0$$$$$$1w999999#$$$$$$$$$$$$$$$$$$$$$#99999999999999j$$$$$$$$$$$$$$$$$$$$${9999999%$$$$$$0",
"=$uuuuuyhwwwwwv#$uuuuuuuuuuuuuuuuuuu$,vwwwwwwwwwwwwv.$uuuuuuuuuuuuuuuuuuu${zwwwwww~uuuuu$0",
"        y11111$0ABBBBBBBBBBBBBBBBBBBC&$111111111111$jABBBBBBBBBBBBBBBBBBBC&$11111$h     | ",
"        1$$$$$$0999999999999999999999h$$$$$$$$$$$$$$0999999999999999999999&$$$$$$$|       ",
"        1$$$$$$0999999999999999999999h$$$$$$$$$$$$$$0999999999999999999999&$$$$$$$|       ",
"        1$$$$$$0999999999999999999999h$$$$$$$$$$$$$$j9AA999999999999999999&$$$$$$$        ",
"       |1$$$$$$0999999999999999999999h$$$$$$$$$$$$$$0999999999999999999999&$$$$$$$        ",
"       |1$$$$$$0999999999999999999999h$$$$$$$$$$$$$$0999999999999999999999&$$$$$$$        ",
"       |1$$$$$$0999999999999999999999h$$$$$$$$$$$$$$j999999999999999999999&$$$$$$$        ",
"       |1$$$$$$0999999999999999999999v*&&&&&&&&&&&&*|999999999999999999999&$$$$$$$        ",
"       |1$$$$$$09999999999999999999999999999999999999999999999999999999999&$$$$$$$        ",
"       |1$$$$$$09999999999999999999999999999999999999999999999999999999999&$$$$$$$        ",
"       |1$$$$$$09999999999999999999999999999999999999999999999999999999999&$$$$$$$        ",
"       |1$$$$$$09999999999999999999999999999999999999999999999999999999999&$$$$$$$        ",
"       |1$$$$$$09999999999999999999999999999999999999999999999999999999999&$$$$$$$        ",
"        $$$$$$$09999999999999999999999999999999999999999999999999999999999h$$$$$$$        ",
"        ,@@@@@@j&*************z9999999999999999999999999999D**************0@@@,@@+|       ",
"               #$$$$$$$$$$$$$$h9999999999999999999999999999|$$$$$$$$$$$$$${               ",
"               #$$$$$$$$$$$$$$h9999999999999999999999999999|$$$$$$$$$$$$$${               ",
"               #$$$$$$$$$$$$$$h9999999999999999999999999999|$$$$$$$$$$$$$${               ",
"               #$$$$$$$$$$$$$$h9999999999999999999999999999|$$$$$$$$$$$$$${               ",
"               #$$$$$$$$$$$$$$h9999999999999999999999999999|$$$$$$$$$$$$$${               ",
"               #$$$$$$$$$$$$$$h9999999999999999999999999999|$$$$$$$$$$$$$${               ",
"               ,$$$$$$$$$$$$$$h9xxxxxxxxxxxxxxxxxxxxxxxxxx9|$$$$$$$$$$$$$$~               ",
"                              +$$$$$$$$$$$$$$$$$$$$$$$$$$$$y                              ",
"                              +$$$$$$$$$$$$$$$$$$$$$$$$$$$$%                              ",
"                              +$$$$$$$$$$$$$$$$$$$$$$$$$$$$%                              ",
"                              +$$$$$$$$$$$$$$$$$$$$$$$$$$$$%                              ",
"                              +$$$$$$$$$$$$$$$$$$$$$$$$$$$$%                              ",
"                              +$$$$$$$$$$$$$$$$$$$$$$$$$$$$%                              ",
"                              {$$$$$$$$$$$$$$$$$$$$$$$$$$$$y                              ",
"                              h&&&&&&hhhhhhhhhhh&&&&&&&&&&hh                              "};
