/* XPM */
static char * mouse_hand_xpm[] = {
"75 95 102 2",
"  	g None",
". 	g #262626",
"+ 	g #242424",
"@ 	g #252525",
"# 	g #282828",
"$ 	g #1C1C1C",
"% 	g #1B1B1B",
"& 	g #292929",
"* 	g #202020",
"= 	g #313131",
"- 	g #343434",
"; 	g #E4E4E4",
"> 	g #FDFDFD",
", 	g #FFFFFF",
"' 	g #868686",
") 	g #232323",
"! 	g #222222",
"~ 	g #E8E8E8",
"{ 	g #7F7F7F",
"] 	g #212121",
"^ 	g #1E1E1E",
"/ 	g #1D1D1D",
"( 	g #2E2E2E",
"_ 	g #353535",
": 	g #2F2F2F",
"< 	g #D8D8D8",
"[ 	g #F1F1F1",
"} 	g #F4F4F4",
"| 	g #F5F5F5",
"1 	g #F3F3F3",
"2 	g #7B7B7B",
"3 	g #272727",
"4 	g #2D2D2D",
"5 	g #7A7A7A",
"6 	g #757575",
"7 	g #717171",
"8 	g #6F6F6F",
"9 	g #DCDCDC",
"0 	g #EDEDED",
"a 	g #EEEEEE",
"b 	g #EFEFEF",
"c 	g #ECECEC",
"d 	g #515151",
"e 	g #323232",
"f 	g #333333",
"g 	g #303030",
"h 	g #6E6E6E",
"i 	g #525252",
"j 	g #6D6D6D",
"k 	g #555555",
"l 	g #6C6C6C",
"m 	g #EBEBEB",
"n 	g #EAEAEA",
"o 	g #4E4E4E",
"p 	g #FCFCFC",
"q 	g #494949",
"r 	g #E7E7E7",
"s 	g #444444",
"t 	g #434343",
"u 	g #383838",
"v 	g #414141",
"w 	g #2C2C2C",
"x 	g #1F1F1F",
"y 	g #404040",
"z 	g #707070",
"A 	g #BBBBBB",
"B 	g #FBFBFB",
"C 	g #E9E9E9",
"D 	g #D2D2D2",
"E 	g #4C4C4C",
"F 	g #D0D0D0",
"G 	g #5A5A5A",
"H 	g #CDCDCD",
"I 	g #CCCCCC",
"J 	g #727272",
"K 	g #7E7E7E",
"L 	g #CFCFCF",
"M 	g #747474",
"N 	g #424242",
"O 	g #E0E0E0",
"P 	g #DADADA",
"Q 	g #626262",
"R 	g #676767",
"S 	g #6A6A6A",
"T 	g #D7D7D7",
"U 	g #1A1A1A",
"V 	g #D6D6D6",
"W 	g #E2E2E2",
"X 	g #E1E1E1",
"Y 	g #808080",
"Z 	g #787878",
"` 	g #777777",
" .	g #E3E3E3",
"..	g #181818",
"+.	g #161616",
"@.	g #E5E5E5",
"#.	g #E6E6E6",
"$.	g #3A3A3A",
"%.	g #595959",
"&.	g #767676",
"*.	g #7C7C7C",
"=.	g #7D7D7D",
"                                                                                                                                                      ",
"                                                                                                                                                      ",
"                                                                                                                                                      ",
"                                                                                                                                                      ",
"                                          . + @ # # # @ @                                                                                             ",
"                                          $ $ $ $ $ $ $ $                                                                                             ",
"                                          $ $ $ $ $ $ $ $                                                                                             ",
"                                          % $ $ $ $ $ $ $                                                                                             ",
"                                  & * = - ; > , , , , , , ' ) ! +                                                                                     ",
"                                  + $ $ $ ~ , , , , , , , { $ $ $                                                                                     ",
"                                  + $ $ $ ~ , , , , , , , { $ $ $                                                                                     ",
"                                  ) $ $ $ ~ , , , , , , , { $ $ $                                                                                     ",
"                                  ! $ $ $ ~ , , , , , , , { $ $ $                                                                                     ",
"                                  ! $ $ $ ~ , , , , , , , { $ $ $                                                                                     ",
"                                  ] $ $ $ ~ , , , , , , , { $ $ $                                                                                     ",
"                                  * $ $ $ ~ , , , , , , , { $ $ $                                                                                     ",
"                                  ^ $ $ $ ~ , , , , , , , { $ $ $                                                                                     ",
"                                  ^ $ $ $ ~ , , , , , , , { $ $ $                                                                                     ",
"                                  / $ $ $ ~ , , , , , , , { $ $ $                                                                                     ",
"                                  / $ $ $ ~ , , , , , , , { $ $ $                                                                                     ",
"                                  / $ $ $ ~ , , , , , , , { $ $ $                                                                                     ",
"                                  / $ $ $ ~ , , , , , , , { $ $ $                                                                                     ",
"                                  / $ $ $ ~ , , , , , , , { $ $ $                                                                                     ",
"                                  $ $ $ $ ~ , , , , , , , { $ $ $                                                                                     ",
"                                  $ $ $ $ ~ , , , , , , , { $ $ $ ( _ : ] * * * *                                                                     ",
"                                  $ $ $ $ ~ , , , , , , , { $ $ $ $ $ $ $ $ $ $ $                                                                     ",
"                                  $ $ $ $ ~ , , , , , , , { $ $ $ $ $ $ $ $ $ $ $                                                                     ",
"                                  $ $ $ $ ~ , , , , , , , { $ $ $ $ $ $ $ $ $ $ $                                                                     ",
"                                  $ $ $ $ ~ , , , , , , , { $ $ $ < [ } | | | } 1 2 # & & . ! * ! 3 4 3 $                                             ",
"                                  $ $ $ $ ~ , , , , , , , { $ $ $ ~ , , , , , , , 5 $ $ $ $ $ $ $ $ $ $ $                                             ",
"                                  $ $ $ $ ~ , , , , , , , { $ $ $ ~ , , , , , , , 6 $ $ $ $ $ $ $ $ $ $ $                                             ",
"                                  / $ $ $ ~ , , , , , , , { $ $ $ ~ , , , , , , , 7 $ $ $ $ $ $ $ $ $ $ $                                             ",
"                                  / $ $ $ ~ , , , , , , , { $ $ $ ~ , , , , , , , 8 $ $ $ 9 0 0 a b 0 0 c d _ - e f f f g                             ",
"                                  / $ $ $ ~ , , , , , , , { $ $ $ ~ , , , , , , , h $ $ $ 0 , , , , , , , i $ $ $ $ $ $ $                             ",
"                                  / $ $ $ ~ , , , , , , , { $ $ $ ~ , , , , , , , j $ $ $ c , , , , , , , k $ $ $ $ $ $ $                             ",
"                                  / $ $ $ ~ , , , , , , , { $ $ $ ~ , , , , , , , l $ $ $ c , , , , , , , k $ $ $ $ $ $ $                             ",
"                                  / $ $ $ ~ , , , , , , , { $ $ $ ~ , , , , , , , l $ $ $ m , , , , , , , i $ $ $ n [ 1 n 3 @ $ $                     ",
"                                  / $ $ $ ~ , , , , , , , { $ $ $ ~ , , , , , , , l $ $ $ m , , , , , , , o $ $ $ p , , , # $ $ $                     ",
"                                  / $ $ $ ~ , , , , , , , { $ $ $ ~ , , , , , , , l $ $ $ m , , , , , , , q $ $ $ p , , , f $ $ $                     ",
"                                  / $ $ $ ~ , , , , , , , { $ $ $ r , , , , , , , l $ $ $ m , , , , , , , s $ $ $ p , , , t $ $ $                     ",
"  u # 3 + ) ! ] ! + . 3 #         ^ $ $ $ ~ , , , , , , , { $ $ $ r , , , , , , , j $ $ $ m , , , , , , , v $ $ $ p , , , a a a c w * ! !             ",
"  f $ $ $ $ $ $ $ $ $ $ $         ^ $ $ $ ~ , , , , , , , { $ $ $ r , , , , , , , h $ $ $ m , , , , , , , v $ $ $ p , , , , , , , x $ $ $             ",
"  f $ $ $ $ $ $ $ $ $ $ $         ^ $ $ $ ~ , , , , , , , { $ $ $ r , , , , , , , h $ $ $ c , , , , , , , y $ $ $ p , , , , , , , x $ $ $             ",
"  f $ $ $ $ $ $ $ $ $ $ $         ^ $ $ $ ~ , , , , , , , { $ $ $ ~ , , , , , , , z $ $ $ a , , , , , , , y $ $ $ p , , , , , , , ^ $ $ $             ",
"  f $ $ $ A r r r r r r ~ 2 ] $ * ^ $ $ $ ~ , , , , , , , 0 r r ~ B , , , , , , , c ~ ~ C > , , , , , , , t $ $ $ p , , , , , , , ^ $ $ $             ",
"  e $ $ $ D , , , , , , , { $ $ $ $ $ $ $ ~ , , , , , , , , , , , , , , , , , , , , , , , , , , , , , , , E $ $ $ p , , , , , , , ^ $ $ $             ",
"  e $ $ $ F , , , , , , , { $ $ $ $ $ $ $ ~ , , , , , , , , , , , , , , , , , , , , , , , , , , , , , , , G $ $ $ p , , , , , , , ^ $ $ $             ",
"  e $ $ $ H , , , , , , , { $ $ $ $ $ $ $ ~ , , , , , , , , , , , , , , , , , , , , , , , , , , , , , , , l $ $ $ > , , , , , , , ^ $ $ $             ",
"  e $ $ $ I , , , , , , , 0 ~ ~ ~ J $ $ $ ~ , , , , , , , , , , , , , , , , , , , , , , , , , , , , , , , c ~ ~ ~ , , , , , , , , ^ $ $ $             ",
"  e $ $ $ I , , , , , , , , , , , K $ $ $ ~ , , , , , , , , , , , , , , , , , , , , , , , , , , , , , , , , , , , , , , , , , , , ^ $ $ $             ",
"  = $ $ $ I , , , , , , , , , , , K $ $ $ ~ , , , , , , , , , , , , , , , , , , , , , , , , , , , , , , , , , , , , , , , , , , , ^ $ $ $             ",
"  = $ $ $ L , , , , , , , , , , , { $ $ $ ~ , , , , , , , , , , , , , , , , , , , , , , , , , , , , , , , , , , , , , , , , , , , ^ $ $ $             ",
"          M E & N O , , , , , , , 0 ~ r ~ B , , , , , , , , , , , , , , , , , , , , , , , , , , , , , , , , , , , , , , , , , , , ^ $ $ $             ",
"          ^ $ $ $ P , , , , , , , , , , , , , , , , , , , , , , , , , , , , , , , , , , , , , , , , , , , , , , , , , , , , , , , ^ $ $ $             ",
"          x $ $ $ P , , , , , , , , , , , , , , , , , , , , , , , , , , , , , , , , , , , , , , , , , , , , , , , , , , , , , , , ^ $ $ $             ",
"          ! $ $ $ P , , , , , , , , , , , , , , , , , , , , , , , , , , , , , , , , , , , , , , , , , , , , , , , , , , , , , , , ^ $ $ $             ",
"                  Q R S j O , , , , , , , , , , , , , , , , , , , , , , , , , , , , , , , , , , , , , , , , , , , , , , , , , , , ^ $ $ $             ",
"                  3 $ $ $ T , , , , , , , , , , , , , , , , , , , , , , , , , , , , , , , , , , , , , , , , , , , , , , , , , , , ^ $ $ $             ",
"                  U $ $ $ V , , , , , , , , , , , , , , , , , , , , , , , , , , , , , , , , , , , , , , , , , , , , , , , , , , , ^ $ $ $             ",
"                  % $ $ $ V , , , , , , , , , , , , , , , , , , , , , , , , , , , , , , , , , , , , , , , , , , , , , , , , , , , ^ $ $ $             ",
"                  x $ $ $ V , , , , , , , , , , , , , , , , , , , , , , , , , , , , , , , , , , , , , , , , , , , , , , , , , , , ^ $ $ $             ",
"                  ^ $ $ $ T , , , , , , , , , , , , , , , , , , , , , , , , , , , , , , , , , , , , , , , , , , , , , , , , , , , / $ $ $             ",
"                  / $ $ $ V , , , , , , , , , , , , , , , , , , , , , , , , , , , , , , , , , , , , , , , , , , , , , , , , , , , / $ $ $             ",
"                  ^ $ $ $ V , , , , , , , , , , , , , , , , , , , , , , , , , , , , , , , , , , , , , , , , , , , , , , , , , , , / $ $ $             ",
"                          8 2 2 2 n , , , , , , , , , , , , , , , , , , , , , , , , , , , , , , , , , , , , , , , , , , , , , , , / $ $ $             ",
"                          $ $ $ $ ; , , , , , , , , , , , , , , , , , , , , , , , , , , , , , , , , , , , , , , , , , , , , , , , / $ $ $             ",
"                          $ $ $ $ W , , , , , , , , , , , , , , , , , , , , , , , , , , , , , , , , , , , , , , , , , , , , , , , / $ $ $             ",
"                          / $ $ $ X , , , , , , , , , , , , , , , , , , , , , , , , , , , , , , , , , , , , , , , , , , , , , , , / $ $ $             ",
"                          / $ $ $ O , , , , , , , , , , , , , , , , , , , , , , , , , , , , , , , , , , , , , , , , , , , Y Z Z `                     ",
"                          / $ $ $ X , , , , , , , , , , , , , , , , , , , , , , , , , , , , , , , , , , , , , , , , , , , - $ $ $                     ",
"                          / $ $ $  ., , , , , , , , , , , , , , , , , , , , , , , , , , , , , , , , , , , , , , , , , , , 3 $ $ $                     ",
"                          / $ $ $ r , , , , , , , , , , , , , , , , , , , , , , , , , , , , , , , , , , , , , , , , , , , ^ $ $ $                     ",
"                                  { 8 j 6 0 , , , , , , , , , , , , , , , , , , , , , , , , , , , , , , , , , , , , , , , ..$ $ $                     ",
"                                  / $ $ $ r , , , , , , , , , , , , , , , , , , , , , , , , , , , , , , , , , , , , , , , +.$ $ $                     ",
"                                  $ $ $ $ @., , , , , , , , , , , , , , , , , , , , , , , , , , , , , , , , , , , , , , , +.$ $ $                     ",
"                                  % $ $ $ @., , , , , , , , , , , , , , , , , , , , , , , , , , , , , , , , , , , , , , , +.$ $ $                     ",
"                                  % $ $ $ @., , , , , , , , , , , , , , , , , , , , , , , , , , , , , , , , , , , , , , , ..$ $ $                     ",
"                                  $ $ $ $ #., , , , , , , , , , , , , , , , , , , , , , , , , , , , , , , , , , , , , , , ) $ $ $                     ",
"                                  ^ $ $ $ r , , , , , , , , , , , , , , , , , , , , , , , , , , , , , , , , , , , , , , , $.$ $ $                     ",
"                                  ! $ $ $ r , , , , , , , , , , , , , , , , , , , , , , , , , , , , , , , , , , , , , , , %.$ $ $                     ",
"                                          &.5 5 2 m , , , , , , , , , , , , , , , , , , , , , , , , , , , , , , , { *.*.K                             ",
"                                          x $ $ $ #., , , , , , , , , , , , , , , , , , , , , , , , , , , , , , , 3 $ $ $                             ",
"                                          ] $ $ $ #., , , , , , , , , , , , , , , , , , , , , , , , , , , , , , , . $ $ $                             ",
"                                          ! $ $ $ #., , , , , , , , , , , , , , , , , , , , , , , , , , , , , , , 3 $ $ $                             ",
"                                          ! $ $ $ #., , , , , , , , , , , , , , , , , , , , , , , , , , , , , , , # $ $ $                             ",
"                                          ] $ $ $ #., , , , , , , , , , , , , , , , , , , , , , , , , , , , , , , & $ $ $                             ",
"                                          ] $ $ $ #., , , , , , , , , , , , , , , , , , , , , , , , , , , , , , , 3 $ $ $                             ",
"                                          * $ $ $ #., , , , , , , , , , , , , , , , , , , , , , , , , , , , , , , ) $ $ $                             ",
"                                          x $ $ $ 8 *.=.{ { { { { { { { { { { { { { { { { { { { { { { { { { { { { / $ $ $                             ",
"                                          $ $ $ $ $ $ $ $ $ $ $ $ $ $ $ $ $ $ $ $ $ $ $ $ $ $ $ $ $ $ $ $ $ $ $ $ $ $ $ $                             ",
"                                          $ $ $ $ $ $ $ $ $ $ $ $ $ $ $ $ $ $ $ $ $ $ $ $ $ $ $ $ $ $ $ $ $ $ $ $ $ $ $ $                             ",
"                                          % $ $ $ $ $ $ $ $ $ $ $ $ $ $ $ $ $ $ $ $ $ $ $ $ $ $ $ $ $ $ $ $ $ $ $ $ $ $ $                             ",
"                                                                                                                                                      ",
"                                                                                                                                                      ",
"                                                                                                                                                      "};
