/* XPM */
static char * mouse_xpm[] = {
"75 110 170 2",
"  	g None",
". 	g #232323",
"+ 	g #212121",
"@ 	g #222222",
"# 	g #1C1C1C",
"$ 	g #1D1D1D",
"% 	g #202020",
"& 	g #242424",
"* 	g #282828",
"= 	g #1E1E1E",
"- 	g #363636",
"; 	g #434343",
"> 	g #C8C8C8",
", 	g #FEFEFE",
"' 	g #FDFDFD",
") 	g #FBFBFB",
"! 	g #717171",
"~ 	g #191919",
"{ 	g #373737",
"] 	g #CACACA",
"^ 	g #FFFFFF",
"/ 	g #707070",
"( 	g #161616",
"_ 	g #757575",
": 	g #090909",
"< 	g #131313",
"[ 	g #B3B3B3",
"} 	g #9B9B9B",
"| 	g #9C9C9C",
"1 	g #929292",
"2 	g #F9F9F9",
"3 	g #F8F8F8",
"4 	g #DDDDDD",
"5 	g #5A5A5A",
"6 	g #1F1F1F",
"7 	g #262626",
"8 	g #E3E3E3",
"9 	g #5B5B5B",
"0 	g #2A2A2A",
"a 	g #2C2C2C",
"b 	g #5E5E5E",
"c 	g #252525",
"d 	g #2F2F2F",
"e 	g #F0F0F0",
"f 	g #BEBEBE",
"g 	g #B4B4B4",
"h 	g #B2B2B2",
"i 	g #B1B1B1",
"j 	g #9E9E9E",
"k 	g #D5D5D5",
"l 	g #000000",
"m 	g #D6D6D6",
"n 	g #F5F5F5",
"o 	g #DEDEDE",
"p 	g #DFDFDF",
"q 	g #E0E0E0",
"r 	g #8C8C8C",
"s 	g #979797",
"t 	g #999999",
"u 	g #C9C9C9",
"v 	g #A5A5A5",
"w 	g #595959",
"x 	g #585858",
"y 	g #353535",
"z 	g #EDEDED",
"A 	g #E6E6E6",
"B 	g #828282",
"C 	g #888888",
"D 	g #181818",
"E 	g #F4F4F4",
"F 	g #878787",
"G 	g #343434",
"H 	g #0E0E0E",
"I 	g #141414",
"J 	g #F6F6F6",
"K 	g #A4A4A4",
"L 	g #747474",
"M 	g #767676",
"N 	g #737373",
"O 	g #FAFAFA",
"P 	g #E7E7E7",
"Q 	g #2E2E2E",
"R 	g #ECECEC",
"S 	g #333333",
"T 	g #EBEBEB",
"U 	g #2D2D2D",
"V 	g #1B1B1B",
"W 	g #F1F1F1",
"X 	g #9A9A9A",
"Y 	g #8A8A8A",
"Z 	g #FCFCFC",
"` 	g #3A3A3A",
" .	g #323232",
"..	g #CCCCCC",
"+.	g #C7C7C7",
"@.	g #CBCBCB",
"#.	g #393939",
"$.	g #101010",
"%.	g #313131",
"&.	g #EAEAEA",
"*.	g #969696",
"=.	g #080808",
"-.	g #A8A8A8",
";.	g #070707",
">.	g #A7A7A7",
",.	g #3D3D3D",
"'.	g #444444",
").	g #303030",
"!.	g #DADADA",
"~.	g #DBDBDB",
"{.	g #D4D4D4",
"].	g #6D6D6D",
"^.	g #C6C6C6",
"/.	g #F7F7F7",
"(.	g #7D7D7D",
"_.	g #424242",
":.	g #F2F2F2",
"<.	g #4D4D4D",
"[.	g #292929",
"}.	g #515151",
"|.	g #1A1A1A",
"1.	g #555555",
"2.	g #525252",
"3.	g #CDCDCD",
"4.	g #EEEEEE",
"5.	g #575757",
"6.	g #505050",
"7.	g #4B4B4B",
"8.	g #CFCFCF",
"9.	g #272727",
"0.	g #2B2B2B",
"a.	g #D3D3D3",
"b.	g #848484",
"c.	g #9D9D9D",
"d.	g #D2D2D2",
"e.	g #B5B5B5",
"f.	g #3B3B3B",
"g.	g #E1E1E1",
"h.	g #383838",
"i.	g #DCDCDC",
"j.	g #535353",
"k.	g #C5C5C5",
"l.	g #C4C4C4",
"m.	g #898989",
"n.	g #858585",
"o.	g #989898",
"p.	g #636363",
"q.	g #151515",
"r.	g #646464",
"s.	g #B8B8B8",
"t.	g #EFEFEF",
"u.	g #5F5F5F",
"v.	g #D0D0D0",
"w.	g #F3F3F3",
"x.	g #464646",
"y.	g #414141",
"z.	g #171717",
"A.	g #696969",
"B.	g #A6A6A6",
"C.	g #6A6A6A",
"D.	g #A3A3A3",
"E.	g #686868",
"F.	g #ABABAB",
"G.	g #060606",
"H.	g #B6B6B6",
"I.	g #B9B9B9",
"J.	g #C3C3C3",
"K.	g #050505",
"L.	g #0F0F0F",
"M.	g #0C0C0C",
"                                                                                                                                                      ",
"                                                                                                                                                      ",
"                                                                                                                                                      ",
"                                                                                                                                                      ",
"                                                                                                                                                      ",
"                                                                                                                                                      ",
"                                                                                                                                                      ",
"                                                                                                                                                      ",
"                                                                                                                                                      ",
"                                                                                                                                                      ",
"                  . + + @                                                                                                                             ",
"                  # # # $                                                                                                                             ",
"                  # # # $                                                                                                                             ",
"                  # # # #                                                                                                                             ",
"                  # # # $                                                                                                                             ",
"                  # # # $ % % + & *                                                                                                                   ",
"                  # # # # # # # # #                                                                                                                   ",
"                  # # # # # # # # #                                                                                                                   ",
"                  # # # # # # # # #                                                                                                                   ",
"                  # # # = - ; ; ; ;                                                                                                                   ",
"                  # # # - > , ' ' ) ! ~ = = %                                                                                                         ",
"                  # # # { ] ^ ^ ^ ' / ( # # %                                                                                                         ",
"                  # # # { ] ^ ^ ^ ' ! ( # # .                                                                                                         ",
"                  # # # { ] ^ ^ ^ ' _ : < < =                                                                                                         ",
"                  # # # { ] ^ ^ ^ , [ } | } 1                                                                                                         ",
"                  # # # { ] ^ ^ ^ ^ 2 3 3 3 4 5 6 6 6 7                                                                                               ",
"                  # # # { ] ^ ^ ^ ^ ^ ^ ^ ^ 8 9 # # # 0                                                                                               ",
"                  # # # - ] ^ ^ ^ ^ ^ ^ ^ ^ 8 9 # # # a                                                                                               ",
"                  # # # - ] ^ ^ ^ ^ ^ ^ ^ ^ 8 b c c c d                                                                                               ",
"                  # # # - ] ^ ^ ^ ^ ^ ^ ^ ^ e f g h i j                                                                                               ",
"                  # # # - ] ^ ^ ^ ^ ^ ^ ^ ^ ^ ^ ^ ^ ^ k l # # #                                                                                       ",
"                  # # # - ] ^ ^ ^ ^ ^ ^ ^ ^ ^ ^ ^ ^ ^ k l # # #                                                                                       ",
"                  # # # - ] ^ ^ ^ ^ ^ ^ ^ ^ ^ ^ ^ ^ ^ m l # # #                                                                                       ",
"                  # # # - ] ^ ^ ^ ^ ^ ^ ^ ^ ^ ^ ^ ^ ^ m l l l l                                                                                       ",
"                  # # # - ] ^ ^ ^ ^ ^ ^ ^ ^ ^ ^ ^ ^ ^ n o p p q r + % c 0                                                                             ",
"                  # # # - ] ^ ^ ^ ^ ^ ^ ^ ^ ^ ^ ^ ^ ^ ^ ^ ^ ^ ^ s % # # =                                                                             ",
"                  # # # - ] ^ ^ ^ ^ ^ ^ ^ ^ ^ ^ ^ ^ ^ ^ ^ ^ ^ ^ t % # # $                                                                             ",
"                  # # # - u ^ ^ ^ ^ ^ ^ ^ ^ ^ ^ ^ ^ ^ ^ ^ ^ ^ ^ t % # # 6                                                                             ",
"                  # # # - u ^ ^ ^ ^ ^ ^ ^ ^ ^ ^ ^ ^ ^ ^ ^ ^ ^ ^ v w w x x                                                                             ",
"                  # # # y u ^ ^ ^ ^ ^ ^ ^ ^ ^ ^ ^ ^ ^ ^ ^ ^ ^ ^ z A A A 4 B 6 @ % c                                                                   ",
"                  # # # y u ^ ^ ^ ^ ^ ^ ^ ^ ^ ^ ^ ^ ^ ^ ^ ^ ^ ^ ^ ^ ^ ^ n C D # # .                                                                   ",
"                  # # # y u ^ ^ ^ ^ ^ ^ ^ ^ ^ ^ ^ ^ ^ ^ ^ ^ ^ ^ ^ ^ ^ ^ E F D # # .                                                                   ",
"                  # # # G u ^ ^ ^ ^ ^ ^ ^ ^ ^ ^ ^ ^ ^ ^ ^ ^ ^ ^ ^ ^ ^ ^ E F H I I ~                                                                   ",
"                  # # # G u ^ ^ ^ ^ ^ ^ ^ ^ ^ ^ ^ ^ ^ ^ ^ ^ ^ ^ ^ ^ ^ ^ J K L _ M N                                                                   ",
"                  # # # G > ^ ^ ^ ^ ^ ^ ^ ^ ^ ^ ^ ^ ^ ^ ^ ^ ^ ^ ^ ^ ^ ^ ^ ) O O ) P Q # # # &                                                         ",
"                  # # # G > ^ ^ ^ ^ ^ ^ ^ ^ ^ ^ ^ ^ ^ ^ ^ ^ ^ ^ ^ ^ ^ ^ ^ ^ ^ ^ ^ R Q # # # =                                                         ",
"                  # # # S > ^ ^ ^ ^ ^ ^ ^ ^ ^ ^ ^ ^ ^ ^ ^ ^ ^ ^ ^ ^ ^ ^ ^ ^ ^ ^ ^ T Q # # # =                                                         ",
"                  # # # S > ^ ^ ^ ^ ^ ^ ^ ^ ^ ^ ^ ^ ^ ^ ^ ^ ^ ^ ^ ^ ^ ^ ^ ^ ^ ^ ^ T U V V V 6                                                         ",
"                  # # # S > ^ ^ ^ ^ ^ ^ ^ ^ ^ ^ ^ ^ ^ ^ ^ ^ ^ ^ ^ ^ ^ ^ ^ ^ ^ ^ ^ W | X X X Y                                                         ",
"                  # # # S > ^ ^ ^ ^ ^ ^ ^ ^ ^ ^ ^ ^ ^ ^ ^ ^ ^ ^ ^ ^ ^ ^ ^ ^ ^ ^ ^ , ) Z Z Z > ` + . .                                                 ",
"                  # # #  .> ^ ^ ^ ^ ^ ^ ^ ^ ^ ^ ^ ^ ^ ^ ^ ^ ^ ^ ^ ^ ^ ^ ^ ^ ^ ^ ^ ^ ^ ^ ^ ^ ..` # # #                                                 ",
"                  # # #  .+.^ ^ ^ ^ ^ ^ ^ ^ ^ ^ ^ ^ ^ ^ ^ ^ ^ ^ ^ ^ ^ ^ ^ ^ ^ ^ ^ ^ ^ ^ ^ ^ @.#.# # #                                                 ",
"                  # # #  .+.^ ^ ^ ^ ^ ^ ^ ^ ^ ^ ^ ^ ^ ^ ^ ^ ^ ^ ^ ^ ^ ^ ^ ^ ^ ^ ^ ^ ^ ^ ^ ^ ] S $.$.$.                                                ",
"                  # # # %.+.^ ^ ^ ^ ^ ^ ^ ^ ^ ^ ^ ^ ^ ^ ^ ^ ^ ^ ^ ^ ^ ^ ^ ^ ^ ^ ^ ^ ^ ^ ^ ^ &.] +.+.+.*.=.= 6 U                                       ",
"                  # # # %.+.^ ^ ^ ^ ^ ^ ^ ^ ^ ^ ^ ^ ^ ^ ^ ^ ^ ^ ^ ^ ^ ^ ^ ^ ^ ^ ^ ^ ^ ^ ^ ^ ^ ^ ^ ^ , -.;.# # 6                                       ",
"                  # # # %.+.^ ^ ^ ^ ^ ^ ^ ^ ^ ^ ^ ^ ^ ^ ^ ^ ^ ^ ^ ^ ^ ^ ^ ^ ^ ^ ^ ^ ^ ^ ^ ^ ^ ^ ^ ^ , >.;.# # =                                       ",
"                  # # # %.+.^ ^ ^ ^ ^ ^ ^ ^ ^ ^ ^ ^ ^ ^ ^ ^ ^ ^ ^ ^ ^ ^ ^ ^ ^ ^ ^ ^ ^ ^ ^ ^ ^ ^ ^ ^ , -.;.# # $                                       ",
"                  # # # %.+.^ ^ ^ ^ ^ ^ ^ ^ ^ ^ ^ ^ ^ ^ ^ ^ ^ ^ ^ ^ ^ ^ ^ ^ ^ ^ ^ ^ ^ ^ ^ ^ ^ ^ ^ ^ , i ,.'.'.'.                                      ",
"                  # # # ).+.^ ^ ^ ^ ^ ^ ^ ^ ^ ^ ^ ^ ^ ^ ^ ^ ^ ^ ^ ^ ^ ^ ^ ^ ^ ^ ^ ^ ^ ^ ^ ^ ^ ^ ^ ^ ^ T !.~.~.{.].# # = +                             ",
"                  # # # ).^.^ ^ ^ ^ ^ ^ ^ ^ ^ ^ ^ ^ ^ ^ ^ ^ ^ ^ ^ ^ ^ ^ ^ ^ ^ ^ ^ ^ ^ ^ ^ ^ ^ ^ ^ ^ ^ ^ ^ ^ ^ J ! # # # 6                             ",
"                  # # # ).^.^ ^ ^ ^ ^ ^ ^ ^ ^ ^ ^ ^ ^ ^ ^ ^ ^ ^ ^ ^ ^ ^ ^ ^ ^ ^ ^ ^ ^ ^ ^ ^ ^ ^ ^ ^ ^ ^ ^ ^ ^ J ! # # # 6                             ",
"                  # # # ).^.^ ^ ^ ^ ^ ^ ^ ^ ^ ^ ^ ^ ^ ^ ^ ^ ^ ^ ^ ^ ^ ^ ^ ^ ^ ^ ^ ^ ^ ^ ^ ^ ^ ^ ^ ^ ^ ^ ^ ^ ^ J ! # # # $                             ",
"                  # # # ).^.^ ^ ^ ^ ^ ^ ^ ^ ^ ^ ^ ^ ^ ^ ^ ^ ^ ^ ^ ^ ^ ^ ^ ^ ^ ^ ^ ^ ^ ^ ^ ^ ^ ^ ^ ^ ^ ^ ^ ^ ^ /.(.'.; ; _.                            ",
"                  # # # d ^.^ ^ ^ ^ ^ ^ ^ ^ ^ ^ ^ ^ ^ ^ ^ ^ ^ ^ ^ ^ ^ ^ ^ ^ ^ ^ ^ ^ ^ ^ ^ ^ ^ ^ ^ ^ ^ ^ ^ ^ ^ , n :.W W q <.[.* 7                     ",
"                  # # # d ^.^ ^ ^ ^ ^ ^ ^ ^ ^ ^ ^ ^ ^ ^ ^ ^ ^ ^ ^ ^ ^ ^ ^ ^ ^ ^ ^ ^ ^ ^ ^ ^ ^ ^ ^ ^ ^ ^ ^ ^ ^ ^ ^ ^ ^ ^ z }.|.# # c                   ",
"                  # # # d ^.^ ^ ^ ^ ^ ^ ^ ^ ^ ^ ^ ^ ^ ^ ^ ^ ^ ^ ^ ^ ^ ^ ^ ^ ^ ^ ^ ^ ^ ^ ^ ^ ^ ^ ^ ^ ^ ^ ^ ^ ^ ^ ^ ^ ^ ^ z 1.|.# # d                   ",
"                  # # # d ^.^ ^ ^ ^ ^ ^ ^ ^ ^ ^ ^ ^ ^ ^ ^ ^ ^ ^ ^ ^ ^ ^ ^ ^ ^ ^ ^ ^ ^ ^ ^ ^ ^ ^ ^ ^ ^ ^ ^ ^ ^ ^ ^ ^ ^ ^ z 2.V # # ).                  ",
"                  # # # d ^.^ ^ ^ ^ ^ ^ ^ ^ ^ ^ ^ ^ ^ ^ ^ ^ ^ ^ ^ ^ ^ ^ ^ ^ ^ ^ ^ O o 4 4 4 4 4 4 4 4 4 4 4 4 4 4 4 4 4 3.; V # # ).                  ",
"                  # # # Q ^.^ ^ ^ ^ ^ ^ ^ ^ ^ ^ ^ ^ ^ ^ ^ ^ ^ ^ ^ ^ ^ ^ ^ ^ ^ ^ ^ 4.5.}.6.6.6.6.6.6.6.6.6.6.}.}.}.}.6.6.7.@ # # # ).                  ",
"                  # # # Q ^.^ ^ ^ ^ ^ ^ ^ ^ ^ ^ ^ ^ ^ ^ ^ ^ ^ ^ ^ ^ ^ ^ ^ ^ ^ ^ ^ T Q # # # # # # # # # # # # # # # # # # # # # # d                   ",
"                  # # # Q ^.^ ^ ^ ^ ^ ^ ^ ^ ^ ^ ^ ^ ^ ^ ^ ^ ^ ^ ^ ^ ^ ^ ^ ^ ^ ^ ^ T Q # # # # # # # # # # # # # # # # # # # # # # a                   ",
"                  # # # Q ^.^ ^ ^ ^ ^ ^ ^ ^ ^ ^ ^ ^ ^ ^ , , , , ^ ^ ^ ^ ^ ^ ^ ^ ^ T Q # # # # # # # # # # # # # # # # # # # # $ # &                   ",
"                  # # # Q ^.^ ^ ^ ^ ^ ^ ^ ^ ^ ^ ^ ^ ^ W 8.8.8.8.:.^ ^ ^ ^ ^ ^ ^ ^ T Q # # # % 9.9.7 9.c 7 c & & @ 6 $ % @ c [.0.a                     ",
"                  # # # Q ^.^ ^ ^ ^ ^ ^ ^ ^ ^ ^ ^ ^ ^ {.l l l l k ^ ^ ^ ^ ^ ^ ^ ^ T Q # # # =                                                         ",
"                  # # # Q ^.^ ^ ^ ^ ^ ^ ^ ^ ^ ^ ^ ^ ^ {.l # # l a.^ ^ ^ ^ ^ ^ ^ ^ T Q # # # #                                                         ",
"                  # # # Q ^.^ ^ ^ ^ ^ ^ ^ ^ ^ ^ ^ ^ ^ {.l # # l a.^ ^ ^ ^ ^ ^ ^ ^ T Q # # # #                                                         ",
"                  # # # Q ^.^ ^ ^ ^ ^ ^ ^ ^ ^ ^ ^ ^ ^ k l # # l ~.^ ^ ^ ^ ^ ^ ^ ^ R V l l l l                                                         ",
"                  # # # Q ^.^ ^ ^ ^ ^ ^ ^ ^ R >.X X t b.6 * +   c.j X X -.R ^ ^ ^ 2 {.d.d.{.e.f.6 = +                                                 ",
"                  # # # Q ^.^ ^ ^ ^ ^ ^ ^ ^ o 5.+ + + %         . + + + 5 g.^ ^ ^ ^ ^ , , ^ @.h.# # $                                                 ",
"                  # # # Q ^.^ ^ ^ ^ ^ ^ ^ ^ i.j.# # # $         # # # # x q ^ ^ ^ ^ ^ ^ ^ ^ +.%.# # $                                                 ",
"                  # # # Q ^.^ ^ ^ ^ ^ ^ ^ ^ o 1.# # # =         # # # # 5.p ^ ^ ^ ^ ^ ^ ^ ^ k.U # # $                                                 ",
"                  # # # Q ^.^ ^ ^ ^ 3 n E J g.b $ = # =         $ # # # 5.p ^ ^ ^ ^ ^ ^ ^ ^ l.0.# # $                                                 ",
"                  # # # Q ^.^ ^ ^ , v m.n.r o.                  = # # # 5.p ^ ^ ^ ^ ^ ^ ^ ^ l.0.# # $                                                 ",
"                  # # # Q ^.^ ^ ^ ' p.$.( q.q.                  % # # # 5.p ^ ^ ^ ^ ^ ^ ^ ^ l.0.# # $                                                 ",
"                  # # # Q ^.^ ^ ^ ' r.D # # 6                   & # # # 5.p ^ ^ ^ ^ ^ ^ ^ ^ k.a # # $                                                 ",
"                  # # # d ^.^ ^ ^ , r.D # # =                   a # # # 5.q ^ ^ ^ ^ ^ ^ ^ ^ k.0.|.|.V                                                 ",
"                  # # # a s.t.4.4.R u.V = = &                   - 7 = = 2.v.t.4.e w.^ ^ ^ ^ ] }.x.y.` y                                               ",
"                  # # # $ %.,.,.,.,.                                      ` ,.,.f.L ' ^ ^ ^ ' ) O O 2 v =.# # %                                       ",
"                  # # # # # # # # #                                       $ # # z.A.' ^ ^ ^ ^ ^ ^ ^ , >.;.# # 6                                       ",
"                  # # # # # # # # #                                       6 # # z.A.' ^ ^ ^ ^ ^ ^ ^ , B.=.# # =                                       ",
"                  # # # # # # # # #                                       % # # z.A.' ^ ^ ^ ^ ^ ^ ^ , B.=.# # $                                       ",
"                  * 9.7 9.9.9.9.9.7                                       + # # z.C.' ^ ^ ^ ^ ^ ^ ^ , K : # # $                                       ",
"                                                                          @ # # z.C.' ^ ^ ^ ^ ^ ^ ^ , D.: # # $                                       ",
"                                                                          @ # # z.A.' ^ ^ ^ ^ ^ ^ ^ , K : # # $                                       ",
"                                                                          @ # # z.A.' ^ ^ ^ ^ ^ ^ ^ , B.=.# # $                                       ",
"                                                                          % # # z.E., ^ ^ ^ ^ ^ ^ ^ , F.G.# # =                                       ",
"                                                                            @ % V 5.H.s.H.e.g g e.I.J.| K.# = &                                       ",
"                                                                                    $.L.L.L.$.$.L.H M.H                                               ",
"                                                                                    # # # # # # # # # #                                               ",
"                                                                                    # # # # # # # # # $                                               ",
"                                                                                    = $ # # # # # # # 7                                               ",
"                                                                                                                                                      ",
"                                                                                                                                                      ",
"                                                                                                                                                      ",
"                                                                                                                                                      ",
"                                                                                                                                                      ",
"                                                                                                                                                      ",
"                                                                                                                                                      ",
"                                                                                                                                                      ",
"                                                                                                                                                      "};
