/* XPM */
static xpm_row_t pokeball_xpm[] = {
"89 89 57 1",
" 	c None",
".	c #B1B1B1",
"+	c #5E5E5E",
"@	c #6D6D6D",
"#	c #909090",
"$	c #000000",
"%	c #9E9E9E",
"&	c #BABABA",
"*	c #C0C0C0",
"=	c #8A7473",
"-	c #7E190F",
";	c #7F231C",
">	c #CECECE",
",	c #FB4538",
"'	c #400000",
")	c #711F19",
"!	c #F44336",
"~	c #4F1612",
"{	c #1C1C1C",
"]	c #DBDBDB",
"^	c #161616",
"/	c #100403",
"(	c #737373",
"_	c #540000",
":	c #F5574C",
"<	c #F77168",
"[	c #808080",
"}	c #5D1A15",
"|	c #F66157",
"1	c #F99993",
"2	c #FDE2E1",
"3	c #FDDEDC",
"4	c #FAAFAB",
"5	c #FFFFFF",
"6	c #F8F8F8",
"7	c #F87B73",
"8	c #F5F5F5",
"9	c #DF3D31",
"0	c #825755",
"a	c #FCC6C2",
"b	c #BD342A",
"c	c #2B2B2B",
"d	c #1F0807",
"e	c #3C100D",
"f	c #2D0000",
"g	c #B13127",
"h	c #A92E25",
"i	c #F3F3F3",
"j	c #E7E7E7",
"k	c #EEEEEE",
"l	c #565656",
"m	c #343434",
"n	c #001A1B",
"o	c #F2F2F2",
"p	c #EDEDED",
"q	c #484848",
"r	c #FCFCFC",
"                             .+@@@@@@@@@@@++++++++++@@@@@@+                              ",
"                             #$$$$$$$$$$$$$$$$$$$$$$$$$$$$$                              ",
"                             %$$$$$$$$$$$$$$$$$$$$$$$$$$$$$                              ",
"                             %$$$$$$$$$$$$$$$$$$$$$$$$$$$$$                              ",
"                             %$$$$$$$$$$$$$$$$$$$$$$$$$$$$$                              ",
"                             %$$$$$$$$$$$$$$$$$$$$$$$$$$$$$                              ",
"                             %$$$$$$$$$$$$$$$$$$$$$$$$$$$$$                              ",
"               &****&........=-;;;;;;;;;;;;;;;;;;;;;;;;;;;-.**...........*               ",
"              >$$$$$$$$$$$$$$-,,,,,,,,,,,,,,,,,,,,,,,,,,,,,'$$$$$$$$$$$$$$               ",
"              >$$$$$$$$$$$$$$),!!!!!!!!!!!!!!!!!!!!!!!!!!!,~$$$$$$$$$$$$${               ",
"              *$$$$$$$$$$$$$$),!!!!!!!!!!!!!!!!!!!!!!!!!!!,~$$$$$$$$$$$$${]              ",
"              *$$$$$$$$$$$$$$),!!!!!!!!!!!!!!!!!!!!!!!!!!!,~$$$$$$$$$$$$$^]              ",
"              *$$$$$$$$$$$$$$),!!!!!!!!!!!!!!!!!!!!!!!!!!!,~$$$$$$$$$$$$$^]              ",
"              *$$$$$$$$$$$$$$),!!!!!!!!!!!!!!!!!!!!!!!!!!!,~$$$$$$$$$$$$$^]              ",
"              *$////////////$;,!!!!!!!!!!!!!!!!!!!!!!!!!!!,~$////////////{]              ",
"       ($$$$$$_!!,,,,,,,,,,,,:<<<<<<<!!!!!!!!!!!!!!!!!!!!!!!,,,,,,,,,,,,,!$$$$$$$#       ",
"       [$$$$$$}!!!!!!!!!!!!!!:<<<<<<<!!!!!!!!!!!!!!!!!!!!!!!!!!!!!!!!!!!!!/$$$$$$#       ",
"       [$$$$$$}!!!!!!!!!!!!!!:<<<<<<<!!!!!!!!!!!!!!!!!!!!!!!!!!!!!!!!!!!!!$$$$$$$#       ",
"       [$$$$$$}!!!!!!!!!!!!!!:<<<<<<<!!!!!!!!!!!!!!!!!!!!!!!!!!!!!!!!!!!!!$$$$$$$#       ",
"       [$$$$$$}!!!!!!!!!!!!!!:<<<<<<<!!!!!!!!!!!!!!!!!!!!!!!!!!!!!!!!!!!!!$$$$$$$#       ",
"       ($$$$$$}!!!!!!!!!!!!!!:<<<<<<<!!!!!!!!!!!!!!!!!!!!!!!!!!!!!!!!!!!!!$$$$$$$%       ",
"       ($$$$$$}!!!!!!!!!!!!!,:|||||||!!!!!!!!!!!!!!!!!!!!!!!!!!!!!!!!!!!!!$$$$$$$%       ",
"       ($$$$$$}!!!!!!!|||||||12333333<||||||:!!!!!!!!!!!!!!!!!!!!!!!!!!!!!$$$$$$$%       ",
"       ($$$$$$}!!!!!!!<<<<<<<455555567<<<<<<:!!!!!!!!!!!!!!!!!!!!!!!!!!!!!$$$$$$$%       ",
"       ($$$$$$}!!!!!!!<<<<<<<455555587<<<<<<:!!!!!!!!!!!!!!!!!!!!!!!!!!!!!$$$$$$$%       ",
"       ($$$$$$}!!!!!!!<<<<<<<455555587<<<<<<:!!!!!!!!!!!!!!!!!!!!!!!!!!!!!$$$$$$$%       ",
"       ($$$$$$}!!!!!!!<<<<<<<455555587<<<<<<:!!!!!!!!!!!!!!!!!!!!!!!!!!!!!$$$$$$$%       ",
"       ($$$$$$}!!!!!!!<<<<<<<455555587<<<<<<:!!!!!!!!!!!!!!!!!!!!!!!!!!!!!$$$$$$$%       ",
"       ($$$$$$}!!!!!!!<<<<<<<455555567<<<<<<:!!!!!!!!!!!!!!!!!!!!!!!!!!!!9$$$$$$$%       ",
"%%%%%%.0))))))-!!!!!!!|||||||13aaaaaa<||||||:!!!!!!!!!!!!!!!!!!!!!!!!!!!!!))))))-=..%%%%.",
"$$$$$$$b,,,,,,,!!!!!!!!!!!!!,:<||||||!!!!!!!!!!!!!!!!!!!!!!!!!!!!!!!!!!!!!,,,,,,,-$$$$$$^",
"$$$$$$$b,!!!!!!!!!!!!!!!!!!!!:<<<<<<<!!!!!!!!!!!!!!!!!!!!!!!!!!!!!!!!!!!!!!!!!!!,;$$$$$$c",
"$$$$$$$b,!!!!!!!!!!!!!!!!!!!!:<<<<<<<!!!!!!!!!!!!!!!!!!!!!!!!!!!!!!!!!!!!!!!!!!!,)$$$$$$c",
"$$$$$$$b,!!!!!!!!!!!!!!!!!!!!:<<<<<<<!!!!!!!!!!!!!!!!!!!!!!!!!!!!!!!!!!!!!!!!!!!,)$$$$$$c",
"$$$$$$$b,!!!!!!!!!!!!!!!!!!!!:<<<<<<<!!!!!!!!!!!!!!!!!!!!!!!!!!!!!!!!!!!!!!!!!!!,)$$$$$$c",
"$$$$$$$b,!!!!!!!!!!!!!!!!!!!!:<<<<<<<!!!!!!!!!!!!!!!!!!!!!!!!!!!!!!!!!!!!!!!!!!!,)$$$$$$c",
"$$$$$$$b,!!!!!!!!!!!!!!!!!!!!:<<<<<<<999999999999999!!!!!!!!!!!!!!!!!!!!!!!!!!!!,)$$$$$$c",
"$$$$$$$b,!!!!!!!!!!!!!!!!!!!!!!!!!!!9d$$$$$$$$$$$$$e,!!!!!!!!!!!!!!!!!!!!!!!!!!!,)$$$$$$c",
"$$$$$$$b,!!!!!!!!!!!!!!!!!!!!!!!!!!!9d$$$$$$$$$$$$$e,!!!!!!!!!!!!!!!!!!!!!!!!!!!,)$$$$$$c",
"$$$$$$$b,!!!!!!!!!!!!!!!!!!!!!!!!!!!9d$$$$$$$$$$$$$e,!!!!!!!!!!!!!!!!!!!!!!!!!!!,)$$$$$$c",
"$$$$$$$b,!!!!!!!!!!!!!!!!!!!!!!!!!!!9d$$$$$$$$$$$$$e,!!!!!!!!!!!!!!!!!!!!!!!!!!!,)$$$$$$c",
"$$$$$$$b,!!!!!!!!!!!!!!!!!!!!!!!!!!!9d$$$$$$$$$$$$$e,!!!!!!!!!!!!!!!!!!!!!!!!!!!,)$$$$$$c",
"$$$$$$$b,!!!!!!!!!!!!!!!!!!!!!!!!!!!9d$$$$$$$$$$$$$e,!!!!!!!!!!!!!!!!!!!!!!!!!!!,)$$$$$$c",
"$$$$$$$b,,,,,,,!!!!!!!!!!!!!!,,,,,,,9$$$$$$$$$$$$$$f,,,,,,,!!!!!!!!!!!!!!!,,,,,,,;$$$$$$c",
"$$$$$$$e~~~~~~;!!!!!!!!!!!!!,ge~~~~~~.*************.'~~~~~e9!!!!!!!!!!!!!!}~~~~~~d$$$$$$c",
"$$$$$$$$$$$$$$}!!!!!!!!!!!!!,h$$$$$$^i5555555555555j$$$$$$$9!!!!!!!!!!!!!9$$$$$$$$$$$$$$c",
"$$$$$$$$$$$$$$}!!!!!!!!!!!!!,h$$$$$$^k5555555555555]$$$$$$$9!!!!!!!!!!!!!!$$$$$$$$$$$$$$c",
"$$$$$$$$$$$$$$}!!!!!!!!!!!!!,h$$$$$$^k5555555555555]$$$$$$$9!!!!!!!!!!!!!!$$$$$$$$$$$$$$c",
"$$$$$$$$$$$$$$}!!!!!!!!!!!!!,h$$$$$$^k5555555555555]$$$$$$$9!!!!!!!!!!!!!!$$$$$$$$$$$$$$c",
"$$$$$$$$$$$$$$}!!!!!!!!!!!!!,h$$$$$$^k5555555555555]$$$$$$$9!!!!!!!!!!!!!!$$$$$$$$$$$$$$c",
"$$$$$$$$$$$$$$_,,,,,,,,,,,,,,h$$$$$$^k5555555555555]$$$$$$$9,,,,,,,,,,,,,!$$$$$$$$$$$$$$c",
"$$$$$$$l@@@@@@0hhhhhhhhhhhhhg)$$$$$$^k5555555555555]$$$$$$$-hhhhhhhhhhhhhh+@@@@@@m$$$$$$c",
"$$$$$$$>555555]$$$$$$$$$$$$$$$$$$$$$^k5555555555555]$$$$$$$$$$$$$$$$$$$$$no555555[$$$$$$c",
"$$$$$$$*555555>$$$$$$$$$$$$$$$$$$$$$^k5555555555555]$$$$$$$$$$$$$$$$$$$$${j555555[$$$$$$c",
"$$$$$$$*555555>$$$$$$$$$$$$$$$$$$$$$^k5555555555555]$$$$$$$$$$$$$$$$$$$$${j555555[$$$$$$c",
"$$$$$$$*555555>$$$$$$$$$$$$$$$$$$$$$^k5555555555555]$$$$$$$$$$$$$$$$$$$$${j555555[$$$$$$c",
"$$$$$$$*555555>$$$$$$$$$$$$$$$$$$$$$^k5555555555555]$$$$$$$$$$$$$$$$$$$$${j555555[$$$$$$c",
"$$$$$$$>555555>$$$$$$$$$$$$$$$$$$$$$^o5555555555555j$$$$$$$$$$$$$$$$$$$$$^p555555[$$$$$$c",
"$^^^^^$.pjjjjp*$^^^^^^^^^^^^^^^^^^^^c]jjjjjjjjjjjjj>$^^^^^^^^^^^^^^^^^^^^c]jjjjjp[$^^^^^m",
"       [^{{{{^+oooooooooooooooooooo8]c{{{{{{{{{{{{^qjjjpioooooooooooooooij{{{{{{$#       ",
"       [$$$$$$+555555555555555555555j{$$$$$$$$$$$$$m6kk6555555555555555558$$$$$$$#       ",
"       [$$$$$$+555555555555555555555j{$$$$$$$$$$$$$m8pp8555555555555555558$$$$$$$#       ",
"       ($$$$$$+555555555555555555555j{$$$$$$$$$$$$$q5rrr555555555555555558$$$$$$$%       ",
"       ($$$$$$+555555555555555555555j{$$$$$$$$$$$$$q5555555555555555555558$$$$$$$%       ",
"       ($$$$$$+555555555555555555555j{$$$$$$$$$$$$$q5555555555555555555558$$$$$$$%       ",
"       ($$$$$$+555555555555555555555j$$$$$$$$$$$$$$m5555555555555555555558$$$$$$$%       ",
"       ($$$$$$+5555555555555555555556*************&>5555555555555555555558$$$$$$$%       ",
"       ($$$$$$+55555555555555555555555555555555555555555555555555555555558$$$$$$$%       ",
"       ($$$$$$+55555555555555555555555555555555555555555555555555555555558$$$$$$$%       ",
"       ($$$$$$+55555555555555555555555555555555555555555555555555555555558$$$$$$$%       ",
"       ($$$$$$+55555555555555555555555555555555555555555555555555555555558$$$$$$$%       ",
"       ($$$$$$+55555555555555555555555555555555555555555555555555555555558$$$$$$$%       ",
"       ($$$$$$+55555555555555555555555555555555555555555555555555555555556$$$$$$$%       ",
"       %@(@@@@[&&&&&&&&&&&&&&>55555555555555555555555555555*&&&&&&&&&&&&&.+@@@@@+.       ",
"              *$$$$$$$$$$$$$$(55555555555555555555555555555q$$$$$$$$$$$$$$]              ",
"              *$$$$$$$$$$$$$$[55555555555555555555555555555q$$$$$$$$$$$$$^]              ",
"              *$$$$$$$$$$$$$$[55555555555555555555555555555q$$$$$$$$$$$$$^]              ",
"              *$$$$$$$$$$$$$$[55555555555555555555555555555q$$$$$$$$$$$$$^]              ",
"              *$$$$$$$$$$$$$$[55555555555555555555555555555q$$$$$$$$$$$$$^]              ",
"              *$$$$$$$$$$$$$$[55555555555555555555555555555q$$$$$$$$$$$$$^]              ",
"              *$$$$$$$$$$$$$$(5rrrrrrrrrrrrrrrrrrrrrrrrrrr5q$$$$$$$$$$$$$$]              ",
"                             %$$$$$$$$$$$$$$$$$$$$$$$$$$$$$]                             ",
"                             %$$$$$$$$$$$$$$$$$$$$$$$$$$$$$>                             ",
"                             %$$$$$$$$$$$$$$$$$$$$$$$$$$$$$                              ",
"                             %$$$$$$$$$$$$$$$$$$$$$$$$$$$$$                              ",
"                             %$$$$$$$$$$$$$$$$$$$$$$$$$$$$$                              ",
"                             %$$$$$$$$$$$$$$$$$$$$$$$$$$$$$                              ",
"                             #$$$$$$$$$$$$$$$$$$$$$$$$$$$$$]                             ",
"                             ]*>>>>>>>>>>***********>>>>>>>                              "};
