/* XPM */
static xpm_row_t ultraball_xpm[] = {
"89 89 63 1",
" 	c None",
".	c #DBDBDB",
"+	c #565656",
"@	c #5E5E5E",
"#	c #6D6D6D",
"$	c #B1B1B1",
"%	c #CECECE",
"&	c #000000",
"*	c #909090",
"=	c #BABABA",
"-	c #C0C0C0",
";	c #9E9E9E",
">	c #857A1F",
",	c #8B876E",
"'	c #111004",
")	c #FFEF3A",
"!	c #1C1C1C",
"~	c #1F1D08",
"{	c #FFEB3B",
"]	c #2B2B2B",
"^	c #100403",
"/	c #2A2709",
"(	c #E7AF06",
"_	c #FFC107",
":	c #FFE030",
"<	c #F0DE3E",
"[	c #9799A3",
"}	c #EBDB56",
"|	c #D0C248",
"1	c #494C60",
"2	c #55565F",
"3	c #BAAE4C",
"4	c #5A4402",
"5	c #484848",
"6	c #E7CB2B",
"7	c #FFEC72",
"8	c #FFF49C",
"9	c #E7E7E7",
"0	c #B9B387",
"a	c #5A5315",
"b	c #FFF288",
"c	c #FFF7B8",
"d	c #FFFFFF",
"e	c #878787",
"f	c #808080",
"g	c #3D3B2C",
"h	c #6C652E",
"i	c #6B695B",
"j	c #8D8855",
"k	c #343434",
"l	c #161616",
"m	c #130516",
"n	c #9B8F24",
"o	c #B0A229",
"p	c #777356",
"q	c #F2F2F2",
"r	c #737373",
"s	c #EDEDED",
"t	c #F5F5F5",
"u	c #F3F3F3",
"v	c #FCFCFC",
"w	c #F8F8F8",
"x	c #EEEEEE",
"                             .+@@@@@@@@###########@@@@@@@@@$                             ",
"                             %&&&&&&&&&&&&&&&&&&&&&&&&&&&&&*                             ",
"                             %&&&&&&&&&&&&&&&&&&&&&&&&&&&&&*                             ",
"                             %&&&&&&&&&&&&&&&&&&&&&&&&&&&&&*                             ",
"                             %&&&&&&&&&&&&&&&&&&&&&&&&&&&&&*                             ",
"                             %&&&&&&&&&&&&&&&&&&&&&&&&&&&&&*                             ",
"                             %&&&&&&&&&&&&&&&&&&&&&&&&&&&&&*                             ",
"               $$$=----------;>>>>>>>>>>>>>>>>>>>>>>>>>>>>>,=---------=$$$.              ",
"              .&&&&&&&&&&&&&&')))))))))))))))))))))))))))))>&&&&&&&&&&&&&&$              ",
"              .!&&&&&&&&&&&&&~){{{{{{{{{{{{{{{{{{{{{{{{{{{)>&&&&&&&&&&&&&&$              ",
"               !&&&&&&&&&&&&&~){{{{{{{{{{{{{{{{{{{{{{{{{{{)>&&&&&&&&&&&&&&-              ",
"               !&&&&&&&&&&&&&~){{{{{{{{{{{{{{{{{{{{{{{{{{{)>&&&&&&&&&&&&&&-              ",
"               !&&&&&&&&&&&&&~){{{{{{{{{{{{{{{{{{{{{{{{{{{)>&&&&&&&&&&&&&&-              ",
"               !&&&&&&&&&&&&&~){{{{{{{{{{{{{{{{{{{{{{{{{{{)>&&&&&&&&&&&&&&-              ",
"               ]^''''''''''''/){{{{{{{{{{{{{{{{{{{{{{{{{{{)>&''''''''''''&-              ",
"       ;&&&&&&&(______:){{{{)<[[[[[[[}{{{{{)|122222222222213){{{{){_______4&&&&&&5       ",
"       ;&&&&&&~(______:{{{{{{<[;;;;;[}{{{{{)|2@@@@@@@@@@@@23){{{{{:_______4&&&&&&+       ",
"       ;&&&&&&~(______:{{{{{{<[;;;;;[}{{{{{)|2@@@@@@@@@@@@23){{{{{:_______4&&&&&&+       ",
"       ;&&&&&&~(______:{{{{{{<[;;;;;[}{{{{{)|2@@@@@@@@@@@@23){{{{{:_______4&&&&&&+       ",
"       ;&&&&&&~(______:{{{{{{<[;;;;;[}{{{{{)|2@@@@@@@@@@@@23){{{{{:_______4&&&&&&+       ",
"       ;&&&&&&~(______:{{{{{{<[;;;;;[}{{{{{)|2@@@@@@@@@@@@23){{{{{:_______4&&&&&&+       ",
"       $&&&&&&~(______:){{{{)<[;;;;;[}))))))|2@@@@@@@@@@@@23){{{{{:_______4&&&&&&@       ",
"       $&&&&&&~6::::::7888888899999990000000,+@@@@@@@@@@@@23){{{{{{:::::::a&&&&&&@       ",
"       $&&&&&&~<){{{{{bcccccccddddddd$;;;;;;e@@@@@@@@@@@@@23){{{{{{{{{{{{)a&&&&&&@       ",
"       $&&&&&&~<{{{{{{bcccccccddddddd=;;;;;;e@@@@@@@@@@@@@23){{{{{{{{{{{{)a&&&&&&@       ",
"       $&&&&&&~<{{{{{{bcccccccddddddd=;;;;;;e@@@@@@@@@@@@@23){{{{{{{{{{{{)a&&&&&&@       ",
"       $&&&&&&~<{{{{{{bcccccccddddddd=;;;;;;e@@@@@@@@@@@@@23){{{{{{{{{{{{)a&&&&&&@       ",
"       $&&&&&&~<{{{{{{bcccccccddddddd=;;;;;;e@@@@@@@@@@@@@23){{{{{{{{{{{{)a&&&&&&@       ",
"       $&&&&&&~<{{{{{{bcccccccddddddd=;;;;;;e@@@@@@@@@@@@@23){{{{{{{{{{{{)a&&&&&&@       ",
"=$$$$$$f!]]]]]g<{{{{{{7bbbbbb8.......;eeeeeef@@@@@@@@@@@@@23){{{{{{{{{{{{)h]]]]]]+=$$$$$$",
"]&&&&&&!@@@@@@i<{{{{{{{{{{{{)<[;;;;;;#+@@@@@@@@@@@@@@@@@@@23){{{{{{{{{{{{)j@@@@@@5&&&&&&&",
"k&&&&&&]@@@@@@i<{{{{{{{{{{{{{<[;;;;;;#@@@@@@@@@@@@@@@@@@@@23){{{{{{{{{{{{)j2@@@@@5&&&&&&&",
"k&&&&&&]@@@@@@i<{{{{{{{{{{{{{<[;;;;;;#@@@@@@@@@@@@@@@@@@@@23){{{{{{{{{{{{)j2@@@@@5&&&&&&&",
"k&&&&&&]@@@@@@i<{{{{{{{{{{{{{<[;;;;;;#@@@@@@@@@@@@@@@@@@@@23){{{{{{{{{{{{)j2@@@@@5&&&&&&&",
"k&&&&&&]@@@@@@i<{{{{{{{{{{{{{<[;;;;;;#@@@@@@@@@@@@@@@@@@@@23){{{{{{{{{{{{)j2@@@@@5&&&&&&&",
"k&&&&&&]@@@@@@i<{{{{{{{{{{{{{<[;;;;;;#@@@@@@@@@@@@@@@@@@@@23){{{{{{{{{{{{)j2@@@@@5&&&&&&&",
"k&&&&&&]@@@@@@i<{{{{{{{{{{{{{<[;;;;;;#++++++++++++++@@@@@@23){{{{{{{{{{{{)j2@@@@@5&&&&&&&",
"k&&&&&&]@@@@@@i<{{{{{{{{{{{{)<2@@@@@@]&&&&&&&&&&&&&&+@@@@@23){{{{{{{{{{{{)j2@@@@@5&&&&&&&",
"k&&&&&&]@@@@@@i<{{{{{{{{{{{{{<2@@@@@@!&&&&&&&&&&&&&&+@@@@@23){{{{{{{{{{{{)j2@@@@@5&&&&&&&",
"k&&&&&&]@@@@@@i<{{{{{{{{{{{{{<2@@@@@@]&&&&&&&&&&&&&&+@@@@@23){{{{{{{{{{{{)j2@@@@@5&&&&&&&",
"k&&&&&&]@@@@@@i<{{{{{{{{{{{{{<2@@@@@@]&&&&&&&&&&&&&&+@@@@@23){{{{{{{{{{{{)j2@@@@@5&&&&&&&",
"k&&&&&&]@@@@@@i<{{{{{{{{{{{{{<2@@@@@@]&&&&&&&&&&&&&&+@@@@@23){{{{{{{{{{{{)j2@@@@@5&&&&&&&",
"k&&&&&&]@@@@@@i<{{{{{{{{{{{{{<2@@@@@@]&&&&&&&&&&&&&&+@@@@@23){{{{{{{{{{{{)j2@@@@@5&&&&&&&",
"k&&&&&&]@@@@@@i<{{{{{{{{{{{{{<2@@@@@@l&&&&&&&&&&&&&&@@@@@@23){{{{{{{{{{{{)j@@@@@@5&&&&&&&",
"k&&&&&&l!!!!!!g<{{{{{{{{{{{{{<m!!!!!&;--------------!!!!!!mn){{{{{{{{{{{{)hm!!!!!l&&&&&&&",
"k&&&&&&&&&&&&&~<{{{{{{{{{{{{)6&&&&&&&.dddddddddddddd&&&&&&&n){{{{{{{{{{{{)a&&&&&&&&&&&&&&",
"k&&&&&&&&&&&&&~<{{{{{{{{{{{{)6&&&&&&&.dddddddddddddd&&&&&&&n){{{{{{{{{{{{)a&&&&&&&&&&&&&&",
"k&&&&&&&&&&&&&~<{{{{{{{{{{{{)6&&&&&&&.dddddddddddddd&&&&&&&n){{{{{{{{{{{{)a&&&&&&&&&&&&&&",
"k&&&&&&&&&&&&&~<{{{{{{{{{{{{)6&&&&&&&.dddddddddddddd&&&&&&&n){{{{{{{{{{{{)a&&&&&&&&&&&&&&",
"k&&&&&&&&&&&&&~<{{{{{{{{{{{{)6&&&&&&&.dddddddddddddd&&&&&&&n){{{{{{{{{{{{)a&&&&&&&&&&&&&&",
"k&&&&&&&&&&&&&'<)))))))))))))<&&&&&&&.dddddddddddddd&&&&&&&n))))))))))))))a&&&&&&&&&&&&&&",
"k&&&&&&k#######nooooooooooooon&&&&&&&.dddddddddddddd&&&&&&&aoooooooooooooop######+&&&&&&&",
"k&&&&&&fddddddqm&&&&&&&&&&&&&&&&&&&&&.dddddddddddddd&&&&&&&&&&&&&&&&&&&&&&-dddddd%&&&&&&&",
"k&&&&&&rdddddds!&&&&&&&&&&&&&&&&&&&&&.dddddddddddddd&&&&&&&&&&&&&&&&&&&&&&-dddddd-&&&&&&&",
"k&&&&&&rdddddds!&&&&&&&&&&&&&&&&&&&&&.dddddddddddddd&&&&&&&&&&&&&&&&&&&&&&-dddddd-&&&&&&&",
"k&&&&&&rdddddds!&&&&&&&&&&&&&&&&&&&&&.dddddddddddddd&&&&&&&&&&&&&&&&&&&&&&-dddddd-&&&&&&&",
"k&&&&&&rdddddds!&&&&&&&&&&&&&&&&&&&&&.dddddddddddddd&&&&&&&&&&&&&&&&&&&&&&-dddddd-&&&&&&&",
"]&&&&&&rdddddds!&&&&&&&&&&&&&&&&&&&&&.dddddddddddddd&&&&&&&&&&&&&&&&&&&&&&-dddddd-&&&&&&&",
"klllll&rs99999.]llllllllllllllllllll&-s9999999999999lllllllllllllllllllll&$s9999s$&lllll&",
"       ;&!!!!!].tqqqqqqqqqqqqqqqqqqqt@l!!!!!!!!!!!!l9uqqqqqqqqqqqqqqqqqqqt@l!!!!l@       ",
"       ;&&&&&&!9ddddddddddddddddddddd@&&&&&&&&&&&&&&qddddddddddddddddddddd+&&&&&&+       ",
"       ;&&&&&&!9ddddddddddddddddddddd@&&&&&&&&&&&&&&qddddddddddddddddddddd@&&&&&&+       ",
"       ;&&&&&&!9ddddddddddddddddddddd@&&&&&&&&&&&&&&svwvdddddddddddddddddd@&&&&&&@       ",
"       $&&&&&&!9ddddddddddddddddddddd@&&&&&&&&&&&&&&qddddddddddddddddddddd@&&&&&&@       ",
"       $&&&&&&!9ddddddddddddddddddddd@&&&&&&&&&&&&&&qddddddddddddddddddddd@&&&&&&@       ",
"       $&&&&&&!9ddddddddddddddddddddd+&&&&&&&&&&&&&&xddddddddddddddddddddd@&&&&&&@       ",
"       $&&&&&&!9ddddddddddddddddddddd%=------------=vddddddddddddddddddddd@&&&&&&@       ",
"       $&&&&&&!9dddddddddddddddddddddddddddddddddddddddddddddddddddddddddd@&&&&&&@       ",
"       $&&&&&&!9dddddddddddddddddddddddddddddddddddddddddddddddddddddddddd@&&&&&&@       ",
"       $&&&&&&!9dddddddddddddddddddddddddddddddddddddddddddddddddddddddddd@&&&&&&@       ",
"       $&&&&&&!9dddddddddddddddddddddddddddddddddddddddddddddddddddddddddd@&&&&&&@       ",
"       $&&&&&&!9dddddddddddddddddddddddddddddddddddddddddddddddddddddddddd@&&&&&&@       ",
"       ;&&&&&&lsdddddddddddddddddddddddddddddddddddddddddddddddddddddddddd+&&&&&&+       ",
"       =######r$=============-ddddddddddddddddddddddddddddd.==============r######*       ",
"               &&&&&&&&&&&&&&&dddddddddddddddddddddddddddddf&&&&&&&&&&&&&&-              ",
"               !&&&&&&&&&&&&&!ddddddddddddddddddddddddddddde&&&&&&&&&&&&&&-              ",
"               !&&&&&&&&&&&&&!ddddddddddddddddddddddddddddde&&&&&&&&&&&&&&-              ",
"               !&&&&&&&&&&&&&!ddddddddddddddddddddddddddddde&&&&&&&&&&&&&&-              ",
"               !&&&&&&&&&&&&&!ddddddddddddddddddddddddddddde&&&&&&&&&&&&&&-              ",
"               !&&&&&&&&&&&&&!ddddddddddddddddddddddddddddde&&&&&&&&&&&&&&-              ",
"               &&&&&&&&&&&&&&&dvvvvvvvvvvvvvvvvvvvvvvvvvvvdf&&&&&&&&&&&&&&-              ",
"                              &&&&&&&&&&&&&&&&&&&&&&&&&&&&&;                             ",
"                              &&&&&&&&&&&&&&&&&&&&&&&&&&&&&;                             ",
"                             %&&&&&&&&&&&&&&&&&&&&&&&&&&&&&*                             ",
"                             %&&&&&&&&&&&&&&&&&&&&&&&&&&&&&*                             ",
"                             %&&&&&&&&&&&&&&&&&&&&&&&&&&&&&*                             ",
"                             %&&&&&&&&&&&&&&&&&&&&&&&&&&&&&*                             ",
"                             %&&&&&&&&&&&&&&&&&&&&&&&&&&&&&e                             ",
"                              ---------%%%%%%%%%%%---------.                             "};
